<?xml version="1.0" encoding="UTF-8" standalone="no"?>
<!-- Generator: Adobe Illustrator 16.0.0, SVG Export Plug-In . SVG Version: 6.00 Build 0)  -->

<svg
   version="1.1"
   id="Capa_1"
   x="0px"
   y="0px"
   width="30.239"
   height="30.239"
   viewBox="0 0 30.239 30.239"
   xml:space="preserve"
   sodipodi:docname="search_original.svg"
   xmlns:inkscape="http://www.inkscape.org/namespaces/inkscape"
   xmlns:sodipodi="http://sodipodi.sourceforge.net/DTD/sodipodi-0.dtd"
   xmlns="http://www.w3.org/2000/svg"
   xmlns:svg="http://www.w3.org/2000/svg"><defs
   id="defs39" /><sodipodi:namedview
   id="namedview37"
   pagecolor="#ffffff"
   bordercolor="#000000"
   borderopacity="0.25"
   inkscape:showpageshadow="2"
   inkscape:pageopacity="0.0"
   inkscape:pagecheckerboard="0"
   inkscape:deskcolor="#d1d1d1"
   showgrid="false" />
<g
   id="g4"
   style="fill:#444444;fill-opacity:1;stroke:none">
	<path
   d="m 20.194,3.46 c -4.613,-4.613 -12.121,-4.613 -16.734,0 -4.612,4.614 -4.612,12.121 0,16.735 4.108,4.107 10.506,4.547 15.116,1.34 0.097,0.459 0.319,0.897 0.676,1.254 l 6.718,6.718 c 0.979,0.977 2.561,0.977 3.535,0 0.978,-0.978 0.978,-2.56 0,-3.535 l -6.718,-6.72 C 22.432,18.898 21.993,18.675 21.534,18.578 24.743,13.967 24.303,7.57 20.194,3.46 Z m -2.121,14.614 c -3.444,3.444 -9.049,3.444 -12.492,0 -3.442,-3.444 -3.442,-9.048 0,-12.492 3.443,-3.443 9.048,-3.443 12.492,0 3.444,3.444 3.444,9.048 0,12.492 z"
   id="path2"
   style="fill:#444444;fill-opacity:1;stroke:none" />
</g>















</svg>
