<?xml version="1.0" encoding="UTF-8"?>
<svg enable-background="new 0 0 30.239 30.239" version="1.1" viewBox="0 0 30.24 30.24" xml:space="preserve" xmlns="http://www.w3.org/2000/svg">
<g fill="#fff">
	<path d="m20.19 3.46c-4.613-4.613-12.12-4.613-16.73 0-4.612 4.614-4.612 12.12 0 16.74 4.108 4.107 10.51 4.547 15.12 1.34 0.097 0.459 0.319 0.897 0.676 1.254l6.718 6.718c0.979 0.977 2.561 0.977 3.535 0 0.978-0.978 0.978-2.56 0-3.535l-6.718-6.72c-0.355-0.354-0.794-0.577-1.253-0.674 3.209-4.611 2.769-11.01-1.34-15.12zm-2.121 14.61c-3.444 3.444-9.049 3.444-12.49 0-3.442-3.444-3.442-9.048 0-12.49 3.443-3.443 9.048-3.443 12.49 0 3.444 3.444 3.444 9.048 0 12.49z" fill="#fff"/>
</g>
</svg>
