<?xml version="1.0" encoding="UTF-8"?>
<!-- Created with Inkscape (http://www.inkscape.org/) -->
<svg width="165.8mm" height="108.97mm" version="1.1" viewBox="0 0 587.47 386.13" xmlns="http://www.w3.org/2000/svg" xmlns:cc="http://creativecommons.org/ns#" xmlns:dc="http://purl.org/dc/elements/1.1/" xmlns:rdf="http://www.w3.org/1999/02/22-rdf-syntax-ns#" xmlns:xlink="http://www.w3.org/1999/xlink">
 <defs>
  <linearGradient id="linearGradient4397" x1="-196.98" x2="450.53" y1="323.54" y2="323.54" gradientTransform="matrix(.922 0 0 1.0045 21 -4.4977)" gradientUnits="userSpaceOnUse">
   <stop stop-color="#fe008a" offset="0"/>
   <stop stop-color="#09bfff" stop-opacity=".83137" offset=".16537"/>
   <stop stop-color="#410be2" offset=".35257"/>
   <stop stop-color="#fcff05" offset=".56318"/>
   <stop stop-color="#00fe00" stop-opacity=".94239" offset=".81747"/>
   <stop stop-color="#fea300" offset="1"/>
  </linearGradient>
 </defs>
 <metadata>
  <rdf:RDF>
   <cc:Work rdf:about="">
    <dc:format>image/svg+xml</dc:format>
    <dc:type rdf:resource="http://purl.org/dc/dcmitype/StillImage"/>
    <dc:title/>
   </cc:Work>
  </rdf:RDF>
 </metadata>
 <g transform="translate(575.7 -111.11)" display="none">
  <path d="m-160.61 96.758h597v447.5h-597z" fill="url(#linearGradient4397)"/>
 </g>
 <g transform="translate(575.7 -111.11)" display="none" fill="none" stroke="#000" stroke-width="3">
  <g>
   <path d="m232.14 461.65-57.857-22.857-91.429-19.643h-25l5 8.5714-5 3.9286 5.3571 13.214 15.357 9.2857 3.9286 17.143 19.286 13.214 37.143 8.2143 72.5 13.929 42.143-1.4286m-22.5-43.214 10.714-15.714 35.714-24.643 8.9286-8.2143 8.2143-16.786" display="inline" stroke-linecap="round"/>
   <path d="m253.57 504.51 1.0714 7.1429 17.5-2.1429 9.6428-3.5714 17.5-6.7857 13.214-4.2857 10-5.7143 18.571-13.571 16.429-14.643 9.6429-12.5 18.571-21.429 11.071-15 11.786-18.214 3.9286-7.8572-3.9286-5.3571 13.571 0.71429 2.8571-14.286" display="inline"/>
   <path d="m285.36 380.22 5 5 3.9286 11.429" display="inline" stroke-linecap="round"/>
   <path d="m294.11 397.45 0.0893-1.25" display="inline"/>
  </g>
  <path d="m424.95 367.15 4.0406-29.8 3.1567-18.562-2.3991-24.37-3.0305-14.647-11.358-16.34-22.857-29.643-13.929-14.643-36.071-17.143-34.286-8.5714-13.929-3.2143-42.857-1.0714-22.143-0.71429-20.714 1.4286-11.429 6.0714h-28.214l-51.786-0.71428-37.5-3.2143-3.2143 3.2143-32.143-4.6429-3.5714 5.7143h-18.571s-22.21-0.19767-33.214 1.0714c-9.6485 1.1127-28.571 5.7143-28.571 5.7143l-15 4.2857-24.643 0.53571-29.821-1.7857 8.144 3.7859 14.892 7.107 7.5 6.0714-2.1429 4.6429-21.367 5.3825c-4.3621 4.8034-34.097 8.3483-39.463 11.923l-3.9286 8.5491c2.8438 33.84 25.048 28.855 44.435 24.315l50.324 3.7583 29.286 9.6428 15.714 4.2857h11.071l20.194 5.5515 24.989 7.2908c19.727 3.6831 27.213 3.4752 45.699 5.2631 25.975 2.0239 49.91 5.8524 85.335 7.835l35.608-1.0102 14.647-4.5457 9.0914 2.0203 19.698 9.0914 15.152 12.627 10.607 9.5964 10.102 15.657-10.102 15.657" display="inline" stroke-linecap="round" stroke-linejoin="round"/>
 </g>
 <g transform="translate(575.7 -111.11)" display="none" opacity=".167">
  <g fill="none">
   <path transform="translate(-2.7845e-6 -4.1444e-6)" d="m-191.79 172.33c-30.784 5.0838-60.896 10.175-93.136 6.8191-25.043-1.3403-49.677-2.1658-73.449-2.12-19.274-4.2108-35.24 6.6398-55.987 3.1059-30.553-1.2565-58.706 14.854-89.314 10.895-14.708-3.9104-25.621 3.7592-5.8633 9.6506 22.052 16.301-28.343 17.32-39.691 23.85-31.137-0.44583-16.126 48.44 9.7604 40.506 29.138-4.6954 60.315-1.8558 88.279 7.7279 25.018 7.9035 51.328 9.3603 76.152 18.594 38.95 7.7169 78.997 8.4095 118.39 13.251 22.773 1.031 46.16 2.5856 68.14-4.1245 26.389 6.3027 49.438 24.836 62.56 48.427-17.621 16.877 9.3449 42.973-19.143 56.503-15.52 13.03-36.553 20.486-45.332 40.055-30.358-12.628-60.617-26.139-93.445-30.785-24.928-2.9104-57.435-18.941-78.23-7.918-1.5616 11.459 2.2924 26.541 18.647 31.399 0.43094 24.668 27.572 33.151 47.935 35.865 30.211 5.651 60.321 13.499 90.805 16.686 29.045-5.5946 48.563 12.437 76.199-5.1283 43.097-11.662 71.563-48.506 97.911-81.962 9.457-10.59 20.61-32.013 20.972-38.812 21.168 0.79493 11.39-34.939 18.128-50.267 3.3967-23.067 1.257-49.643-15.279-67.571-16.301-20.1-29.911-45.321-56.128-53.509-21.833-11.026-46.385-15.792-70.356-19.698-19.5-0.57665-39.012-1.1269-58.521-1.4384z" display="inline" opacity="1"/>
   <path transform="translate(-2.7845e-6 -4.1444e-6)" d="m-556.76 112.58c-16.532-4.4869-22.986 14.474-2.9452 11.923 25.953 2.4167 56.828 5.2382 71.684 30.003 9.7603 7.7783 18.205 43.872 29.765 28.176-16.907-22.691-27.187-55.222-56.577-64.503-13.576-4.0051-27.796-5.6367-41.926-5.5992z" opacity=".44406"/>
   <path transform="translate(-2.7845e-6 -4.1444e-6)" d="m-182.27 301.52c-8.9487 22.406-19.303 47.938-45.813 54.732-12.055 8.0585-42.453-2.718-44.003 8.4512 25.254 0.40143 56.307 5.1549 74.803-16.042 9.5274-9.6568 28.364-37.88 15.013-47.141z" opacity=".44406"/>
   <path transform="translate(-2.7845e-6 -4.1444e-6)" d="m-173.05 305.77c-5.2633 25.683-20.631 46.804-44.138 60.243-10.341-0.13178-53.969 12.757-22.779 12.654 22.237 0.47106 42.109-12.958 57.546-27.957 8.5091-10.001 22.064-36.277 9.3717-44.94z" opacity=".44406"/>
   <path transform="translate(-2.7845e-6 -4.1444e-6)" d="m-163.64 310.06c-6.8602 19.384-10.648 41.906-31.925 52.947-8.0802 13.566-32.619 17.614-35.631 27.405 21.318 0.58949 40.053-16.291 55.005-30.16 9.8304-12.139 21.202-36.916 12.551-50.192z" opacity=".44406"/>
   <path transform="translate(-2.7845e-6 -4.1444e-6)" d="m-156.35 316.15c-2.6955 24.738-16.451 48.144-38.969 61.426-12.757 2.0581-37.236 21.713-9.9291 14.835 22.447-5.776 40.302-23 48.574-44.486 3.1639-7.3942 10.858-27.983 0.3245-31.775z" opacity=".44406"/>
   <path transform="translate(-2.7845e-6 -4.1444e-6)" d="m-151.51 320.92c-2.7482 24.421-14.175 51.003-37.413 63.1-26.369 15.373 12.927 6.2966 21.408-2.0614 17.809-11.395 25.327-34.711 23.26-55.507-0.71003-2.9442-4.168-5.8893-7.2544-5.5317z" opacity=".44406"/>
   <g stroke="#000">
    <g stroke-width="3">
     <g>
      <path transform="translate(-2.7845e-6 -4.1444e-6)" d="m-364.02 415.58c33.443 2.1818 66.594 6.6795 99.556 12.675 25.083 6.1966 49.718 14.316 74.73 20.897-0.83014-8.1246-14.692-7.3859-20.923-11.837-20.129-8.0584-40.019-16.904-61.678-19.907-23.665-4.4905-47.082-11.31-70.903-14.327-5.654 1.8081-25.322-4.4331-17.948 4.858 1.4974 6.3336-4.8962 12.119 2.4487 20.672 6.6832 5.2633 17.901 7.1937 17.316 17.693-0.40082 11.631 12.033 14.526 19.442 20.841 26.454 8.1486 54.558 12.105 81.834 17.731 16.779 3.5302 33.545 7.2214 50.774 4.9907 5.5346-1.8816 26.027 3.2697 17.626-5.1643-9.2616-11.431-8.1298-28.533-19.061-38.764 5.9662-10.004 12.827-19.119 23.444-24.498 14.166-10.554 32.53-18.487 38.093-36.703 0.67804-1.3855 1.3561-2.7711 2.0341-4.1566" display="inline" stroke-linecap="round"/>
      <path transform="translate(-2.7845e-6 -4.1444e-6)" d="m-168.3 488.43c-1.8643 12.262 11.597 4.3651 18.571 5 16.623-7.2448 34.75-11.076 50.357-20.357 17.837-12.297 34.924-26.011 47.405-43.902 16.31-18.104 31.548-37.513 42.595-59.312-11.509-11.628 13.521 1.9463 10.746-10.158 0.58472-2.9236 1.1694-5.8472 1.7542-8.7709" display="inline"/>
      <path transform="translate(-2.7845e-6 -4.1444e-6)" d="m-13.304 363.79c-19.66-1.2919-38.379 6.1795-57.848 7.927-15.606-1.5363-28.989-12.985-44.249-15.525-6.2239 0.76377-21.534 4.3097-19.13 9.9436 4.737 3.3257 4.663 9.5661 6.9402 14.44" display="inline" stroke-linecap="round"/>
      <path transform="translate(-2.7845e-6 -4.1444e-6)" d="m-127.77 381.38 0.0893-1.25" display="inline"/>
     </g>
     <path transform="translate(-2.7845e-6 -4.1444e-6)" d="m3.0727 351.08c1.7562-17.108 5.5287-34.142 6.9218-51.16-2.0552-16.44-0.91636-34.957-13.179-47.764-13.025-17.114-25.161-35.531-41.389-49.685-18.398-8.6632-36.263-18.812-56.626-21.995-16.392-4.9308-33.136-7.6664-50.285-6.9269-21.35 0.31799-43.551-3.548-64.303 1.5595-11.152 8.4052-25.646 3.4531-38.565 4.7328-29.35-0.15464-58.689-0.54941-87.88-3.9092-5.7812 6.8283-16.255-0.4565-24.088 0.19921-10.592-5.8837-12.615 5.4161-21.871 4.0865-29.875-1.1224-59.876 1.4676-88.327 11.071-18.181 0.95476-36.327 0.0983-54.464-1.25 10.37 5.3219 21.985 8.7286 30.536 16.964-2.8821 8.8686-15.308 6.2341-22.594 9.7946-12.719 10.17-38.023 2.2254-43.902 19.819-3.7709 26.629 25.726 33.746 45.431 25.304 22.187 2.6596 45.358 0.36955 66.284 9.3702 13.033 4.3136 26.23 9.1774 40.066 8.5847 27.363 7.346 54.279 17.271 83.065 17.144 43.193 3.2306 86.831 11.874 130.09 6.5798 9.8898-5.2506 20.711-3.1479 29.989 2.4325 14.822 5.642 25.974 17.761 37.283 28.372 3.6299 7.1882 13.82 14.376 4.7658 21.565-1.8427 2.8562-3.6854 5.7124-5.5281 8.5685" display="inline" stroke-linecap="round" stroke-linejoin="round"/>
    </g>
    <g stroke-width="1px">
     <path transform="translate(-2.7845e-6 -4.1444e-6)" d="m-192.23 172.72c4.7045 29.151 2.8143 58.696 4.7401 88.071-1.6991 14.594-8.9562 28.062-12.591 42.32" display="inline"/>
     <path transform="translate(-2.7845e-6 -4.1444e-6)" d="m-148.84 320.93c26.982-16.359 56.471-29.998 78.878-52.585 8.7657-9.6709 15.845-20.325 19.565-32.938 3.9761-9.7612 7.8037-19.568 9.728-29.97" display="inline"/>
     <path transform="translate(-2.7845e-6 -4.1444e-6)" d="m-133.73 335.75c16.378 2.3483 33.006 1.5954 48.985-2.4016 16.836-7.3404 32.05-17.268 46.101-29.053 12.488-9.0515 17.625-24.849 27.033-36.788 3.5487-5.1537 7.0126-10.078 8.1916-16.358" display="inline"/>
     <path transform="translate(-2.7845e-6 -4.1444e-6)" d="m-169.08 307.47c17.721-26.53 37.803-51.534 55.717-77.814 6.212-15.6 16.527-30.835 18.024-47.697" display="inline"/>
    </g>
    <g>
     <path transform="translate(-2.7845e-6 -4.1444e-6)" d="m-456.87 184.15c-10.662-13.619-21.588-35.657-34.696-50.952-18.012-20.31-48.133-20.151-73.161-20.477-15.591 2.3407-8.7165 12.056 2.8571 11.429" display="inline" stroke-width="3"/>
     <path transform="translate(-2.7845e-6 -4.1444e-6)" d="m-466.87 188.43c-13.996-25.759-30.495-57.525-63.438-60.236-10.646-2.1002-21.45-3.3773-32.277-4.0497" display="inline" stroke-width="3"/>
     <g stroke-width="2">
      <path transform="translate(-2.7845e-6 -4.1444e-6)" d="m-176.91 303.68c-2.3262 12.677-5.4023 25.059-13.23 35.575-4.9704 9.5695-15.634 14.323-23.136 21.751-22.504 2.704-46.063 7.4241-68.185 0.50507 14.054-3.87 29.746 2.3786 43.969-2.5673 15.997-2.2633 30.499-11.124 40.198-23.98 7.8118-9.0471 9.4354-22.553 14.575-33.304" display="inline"/>
      <path transform="translate(-2.7845e-6 -4.1444e-6)" d="m-168.3 307.72c-0.30967 12.119-2.4733 23.759-8.5337 34.393-4.2537 8.9763-13.829 14.563-20.924 21.263-12.345 5.6268-23.446 15.603-37.806 14.188-4.5408 0.72256-25.273 2.4187-14.107-3.3658 14.156-5.8342 31.852-3.0078 42.701-15.429 9.1286-8.5866 22.8-13.705 25.471-27.156 4.361-8.4449 5.7723-17.51 7.485-26.749" display="inline"/>
      <path transform="translate(-2.7845e-6 -4.1444e-6)" d="m-160.45 312.01c-1.4521 16.196-3.7182 32.886-14.395 45.899-12.454 14.658-29.889 24.858-47.368 31.958-12.627 2.9611-11.302-7.4567 0.47675-6.1945 10.151-3.3556 17.128-13.535 26.014-19.61 8.1757-7.5405 18.83-14.191 23.777-24.075 2.4033-10.159 4.8065-20.319 7.2098-30.478" display="inline"/>
      <path transform="translate(-2.7845e-6 -4.1444e-6)" d="m-151.87 318.08c-1.3672 11.591 0.35171 24.295-7.7833 33.752-5.433 12.704-13.241 24.653-26.026 30.882-9.3769 6.9089-21.39 10.771-32.977 11.08-1.6798-8.6239 12.787-8.3645 18.535-13.216 11.617-5.574 20.955-15.578 30.317-24.109 5.6167-11.018 12.644-21.624 11.811-34.525 0.25551-2.5977 0.51102-5.1954 0.76653-7.7931" display="inline"/>
      <path transform="translate(-2.7845e-6 -4.1444e-6)" d="m-145.09 325.22c0.58156 14.849 0.3864 30.84-10.036 42.584-3.6706 8.7211-10.683 13.703-19.388 16.791-9.5438 5.3765-19.448 9.5347-30.576 9.5531l4.2857-4.2857" display="inline"/>
     </g>
    </g>
    <path transform="translate(-2.7845e-6 -4.1444e-6)" d="m-368.3 239.86c40.763 18.199 89.193 20.822 130.71 3.5714" display="inline" stroke-width="1px"/>
    <path transform="translate(-2.7845e-6 -4.1444e-6)" d="m-474.15 202.87c-0.16949 12.975-23.49 10.207-19.539-2.5656 3.2348-9.1904 19.273-7.6136 19.539 2.5656z" display="inline" opacity="1" stroke-linecap="round" stroke-width="1.875"/>
    <path transform="translate(-2.7845e-6 -4.1444e-6)" d="m-472.77 201.65c-3.5389-9.6765-11.636-19.145-22.857-18.571" display="inline" stroke-linecap="round" stroke-linejoin="round" stroke-width="2"/>
    <g>
     <path d="m-502.69 211.63c7.9003-4.2786 17.749 3.3445 24.22-2.4248 5.8182-3.1719 5.8676-13.363 2.8015-18.536" stroke-width="1px"/>
     <path d="m-560.45 257.72c39.395-9.543 79.708-22.393 120.62-14.045 4.153 0.59851 8.299 1.261 12.415 2.0804" stroke-linecap="round" stroke-width="2"/>
     <path d="m-467.59 241.02c2.6829 6.6106 3.6558 24.636 9.4986 10.153 1.9231-2.9676 3.8462-5.9351 5.7693-8.9026" stroke-width="2"/>
    </g>
   </g>
  </g>
 </g>
 <g fill="none" stroke="#000">
  <path d="m8.7609 125.51s39.018-50.21 131.86-55.448c92.846-5.2378 243.28-8.8391 243.28-8.8391s260.64-14.452 193.17 187.37c-67.476 201.82-323.35 107.44-323.35 107.44l-42.041-51.564 1.9117-8.8087s155.83 13.048 171.68 38.703c15.844 25.656 64.475-96.558 64.475-96.558s-38.016-61.142-74.128-45.803c-36.111 15.339-339.39-38.072-339.39-38.072s-32.771-2.4352-27.469-28.419" stroke-width="1.875"/>
  <ellipse cx="84.63" cy="89.004" rx="12.606" ry="9.0854" stroke-width="1.875"/>
  <path d="m15.257 146.61s118.67-4.8962 125.37-33.021" stroke-width="1.875"/>
 </g>
</svg>
