<?xml version="1.0" encoding="UTF-8"?>
<svg width="626.6" height="411.9" version="1.1" viewBox="0 0 587.5 386.1" xmlns="http://www.w3.org/2000/svg"><filter id="dropShadow" x="-40%" y="-40%" height="140%" width="140%">
  <feGaussianBlur stdDeviation="12" result="Blurred"/>
  <feMerge>
    <feMergeNode in="Blurred"/>
    <feMergeNode in="SourceGraphic"/>
  </feMerge>
</filter><g style="filter: url(#dropShadow)"><g transform="translate(575.7 -111.1)" fill="none" stroke="#000"><g><g stroke-width="1.875"><path d="m-364 415.6c33.44 2.182 66.59 6.68 99.56 12.67 25.08 6.197 49.72 14.32 74.73 20.9-0.8301-8.125-14.69-7.386-20.92-11.84-20.13-8.058-40.02-16.9-61.68-19.91-23.66-4.491-47.08-11.31-70.9-14.33-5.654 1.808-25.32-4.433-17.95 4.858 1.497 6.334-4.896 12.12 2.449 20.67 6.683 5.263 17.9 7.194 17.32 17.69-0.4008 11.63 12.03 14.53 19.44 20.84 26.45 8.149 54.56 12.11 81.83 17.73 16.78 3.53 33.55 7.221 50.77 4.991 5.535-1.882 26.03 3.27 17.63-5.164-9.262-11.43-8.13-28.53-19.06-38.76 5.966-10 12.83-19.12 23.44-24.5 14.17-10.55 32.53-18.49 38.09-36.7 0.678-1.386 1.356-2.771 2.034-4.157" stroke-linecap="round"/><path d="m-168.3 488.4c-1.864 12.26 11.6 4.365 18.57 5 16.62-7.245 34.75-11.08 50.36-20.36 17.84-12.3 34.92-26.01 47.41-43.9 16.31-18.1 31.55-37.51 42.59-59.31-11.51-11.63 13.52 1.946 10.75-10.16 0.5847-2.924 1.169-5.847 1.754-8.771"/><path d="m-13.3 363.8c-19.66-1.292-38.38 6.18-57.85 7.927-15.61-1.536-28.99-12.98-44.25-15.53-6.224 0.7638-21.53 4.31-19.13 9.944 4.737 3.326 4.663 9.566 6.94 14.44" stroke-linecap="round"/></g><path d="m-127.8 381.4 0.0893-1.25" stroke-width="3"/></g><path d="m3.073 351.1c1.756-17.11 5.529-34.14 6.922-51.16-2.055-16.44-0.9164-34.96-13.18-47.76-13.02-17.11-25.16-35.53-41.39-49.68-18.4-8.663-36.26-18.81-56.63-22-16.39-4.931-33.14-7.666-50.28-6.927-21.35 0.318-43.55-3.548-64.3 1.56-11.15 8.405-25.65 3.453-38.57 4.733-29.35-0.1546-58.69-0.5494-87.88-3.909-5.781 6.828-16.25-0.4565-24.09 0.1992-10.59-5.884-12.62 5.416-21.87 4.086-29.87-1.122-59.88 1.468-88.33 11.07-18.18 0.9548-36.33 0.0983-54.46-1.25 10.37 5.322 21.98 8.729 30.54 16.96-2.882 8.869-15.31 6.234-22.59 9.795-12.72 10.17-38.02 2.225-43.9 19.82-3.771 26.63 25.73 33.75 45.43 25.3 22.19 2.66 45.36 0.3696 66.28 9.37 13.03 4.314 26.23 9.177 40.07 8.585 27.36 7.346 54.28 17.27 83.07 17.14 43.19 3.231 86.83 11.87 130.1 6.58 9.89-5.251 20.71-3.148 29.99 2.433 14.82 5.642 25.97 17.76 37.28 28.37 3.63 7.188 13.82 14.38 4.766 21.56-1.843 2.856-3.685 5.712-5.528 8.569" stroke-linecap="round" stroke-linejoin="round" stroke-width="1.875"/></g><g transform="translate(575.7 -111.1)" fill="none" stroke="#000" stroke-width="1.875"><path d="m-192.2 172.7c4.705 29.15 2.814 58.7 4.74 88.07-1.699 14.59-8.956 28.06-12.59 42.32"/><path d="m-148.8 320.9c26.98-16.36 56.47-30 78.88-52.59 8.766-9.671 15.84-20.33 19.57-32.94 3.976-9.761 7.804-19.57 9.728-29.97"/><path d="m-133.7 335.7c16.38 2.348 33.01 1.595 48.98-2.402 16.84-7.34 32.05-17.27 46.1-29.05 12.49-9.051 17.62-24.85 27.03-36.79 3.549-5.154 7.013-10.08 8.192-16.36"/><path d="m-169.1 307.5c17.72-26.53 37.8-51.53 55.72-77.81 6.212-15.6 16.53-30.84 18.02-47.7"/></g><g transform="translate(575.7 -111.1)" fill="none" stroke="#000"><path d="m-455.5 184.9c-10.79-13.76-21.85-36.03-35.11-51.49-18.23-20.52-48.71-20.36-74.04-20.69-15.78 2.365-8.821 12.18 2.891 11.55" stroke-width="1.896"/><path d="m-466.9 188.4c-14-25.76-30.5-57.52-63.44-60.24-10.65-2.1-21.45-3.377-32.28-4.05" stroke-width="1.875"/></g><g transform="translate(575.7 -111.1)" fill="none" stroke="#000"><g stroke-width="1.875"><path d="m-176.9 303.7c-2.22 12.85-5.848 25.84-13.71 36.46-5.305 9.131-15.36 13.64-22.65 20.87-22.52 2.707-45.94 7.418-68.19 0.5051 14.43-3.868 29.69 2.381 43.97-2.567 19.2-2.688 36.77-15.25 45.54-32.51 3.712-8.016 5.448-16.79 9.237-24.77"/><path d="m-168.3 307.7c-0.3356 14.84-3.891 30.51-13.84 41.95-4.749 5.071-10.57 8.955-15.62 13.7-12.16 5.569-23.59 15.62-37.81 14.19-5.513 0.5684-11.25 1.486-16.7 0.1236-0.7417-4.133 7.448-4.802 10.86-6.015 11.44-2.587 24.66-2.833 33.4-11.78 8.371-8.803 21.83-13.44 25.88-25.85 1.867-5.715 4.71-11.17 5.764-17.19 0.913-3.97 1.604-7.985 2.347-11.99"/><path d="m-160.4 312c-1.418 16.85-4.164 35.07-16.18 47.93-12.39 13.61-28.68 23.03-45.58 29.93-3.943 2.478-13.15-1.627-6.342-5.343 5.845-1.03 11.87-1.685 16.37-6.287 6.333-5.362 12.24-11.22 18.82-16.28 7.687-6.702 16.64-12.66 21.42-21.97 2.403-10.16 4.807-20.32 7.21-30.48"/><path d="m-151.9 318.1c-1.312 11.39 0.2854 24.42-7.783 33.75-5.275 12.53-13.43 24.82-26.03 30.88-9.512 6.957-21.23 10.73-32.98 11.08-1.096-6.054 6.133-7.979 10.53-9.456 6.667-2.18 12.56-6.154 18.3-10.1 7.166-5.347 13.43-11.75 20.02-17.77 5.722-10.95 12.79-22.3 11.87-35.17 0.2342-2.381 0.4684-4.762 0.7026-7.143"/></g><path d="m-145.1 325.2c0.5816 14.85 0.3864 30.84-10.04 42.58-3.671 8.721-10.68 13.7-19.39 16.79-9.544 5.377-19.45 9.535-30.58 9.553l4.286-4.286" stroke-width="2"/></g><g transform="translate(575.7 -111.1)"><path d="m-368.3 239.9c40.76 18.2 89.19 20.82 130.7 3.571" fill="none" stroke="#000" stroke-width="1.875"/></g><g transform="translate(575.7 -111.1)" fill="none" stroke="#000" stroke-linecap="round"><path d="m-474.2 202.9c-0.1695 12.97-23.49 10.21-19.54-2.566 3.235-9.19 19.27-7.614 19.54 2.566z" stroke-width="1.875"/><path d="m-472.8 201.6c-3.539-9.677-11.64-19.15-22.86-18.57" stroke-linejoin="round" stroke-width="2"/></g><g transform="translate(575.7 -111.1)" fill="none" stroke="#000"><path d="m-502.7 211.6c7.9-4.279 17.75 3.344 24.22-2.425 5.818-3.172 5.868-13.36 2.802-18.54" stroke-width="1px"/><path d="m-560.4 257.7c39.39-9.543 79.71-22.39 120.6-14.04 4.153 0.5985 8.299 1.261 12.41 2.08" stroke-linecap="round" stroke-width="2"/><path d="m-467.6 241c2.683 6.611 3.656 24.64 9.499 10.15 1.923-2.968 3.846-5.935 5.769-8.903" stroke-width="2"/></g></g></svg>
