<?xml version="1.0" encoding="UTF-8"?>
<!-- Created with Inkscape (http://www.inkscape.org/) -->
<svg width="489.53mm" height="277.36mm" version="1.1" viewBox="0 0 489.53 277.36" xmlns="http://www.w3.org/2000/svg" xmlns:cc="http://creativecommons.org/ns#" xmlns:dc="http://purl.org/dc/elements/1.1/" xmlns:rdf="http://www.w3.org/1999/02/22-rdf-syntax-ns#">
 <metadata>
  <rdf:RDF>
   <cc:Work rdf:about="">
    <dc:format>image/svg+xml</dc:format>
    <dc:type rdf:resource="http://purl.org/dc/dcmitype/StillImage"/>
    <dc:title/>
   </cc:Work>
  </rdf:RDF>
 </metadata>
 <g transform="translate(85.28 -63.531)">
  <path d="m273.63 340.3c-9.4745-1.4575-21.253-4.1353-35.631-8.1002-5.4108-1.4921-33.902-8.3361-44.259-10.632-3.5814-0.79378-10.103-2.0516-14.493-2.7952-4.39-0.74355-8.3257-1.5666-8.746-1.8291-0.4203-0.26246-0.76566-0.79622-0.76748-1.1861-4e-3 -0.78606-1.4907-3.4267-3.2373-5.7488-0.93514-1.2432-1.1612-1.9018-1.2719-3.7042-0.11302-1.8413 0.0468-2.6428 0.99877-5.0079 2.3518-5.8432 1.7057-8.1221-2.9716-10.48-5.2102-2.6269-8.9883-5.9059-10.6-9.1992-0.9182-1.8767-0.97963-2.2644-0.83775-5.2872 0.18276-3.8936 0.8138-5.3399 3.3752-7.7358 3.0045-2.8104 5.8681-3.9329 11.531-4.5201 6.735-0.69838 19.086 0.78554 29.361 3.5275 5.266 1.4054 9.4994 3.0172 18.988 7.2296 11.213 4.978 13.009 5.7023 24.445 9.858 5.6812 2.0645 13.538 4.627 17.46 5.6944s8.8909 2.487 11.042 3.1547c3.698 1.1478 4.2077 1.2164 9.3486 1.2574 2.9906 0.024 6.9455-0.13925 8.7888-0.36245 1.8433-0.22317 4.7008-0.55072 6.35-0.72792 4.7832-0.51386 6.2638-0.91017 17.815-4.7686 13.287-4.4381 15.544-5.2916 20.275-7.665l3.6941-1.8535 0.0534-2.1167c0.0781-3.0912-1.1604-10.453-2.3738-14.111-2.7437-8.2712-10.395-21.331-18.185-31.042-3.9158-4.881-11.609-12.817-15.987-16.492-4.6109-3.8704-11.82-8.5914-17.591-11.52-5.5162-2.799-8.5823-4.0762-14.953-6.2288l-4.4979-1.5198v2.8304c0 6.718-4.0953 20.795-8.8836 30.537-5.236 10.652-11.647 17.62-22.016 23.929-9.2776 5.6444-18.923 9.5244-23.019 9.2596-1.5673-0.10129-1.6435-0.15527-1.6435-1.1645 0-0.97772 0.46234-1.3674 6.0695-5.1153 3.3382-2.2313 7.5431-5.2476 9.3441-6.7028 6.1276-4.9509 15.346-14.803 20.3-21.696 4.2847-5.9617 8.2283-13.976 10.816-21.981 1.1781-3.6443 2.3303-9.0068 2.3303-10.846 0-0.8717-0.70291-1.2048-4.057-1.9226-0.97014-0.20762-2.0417-0.46173-2.3812-0.56471-0.47685-0.14461-0.61737 0.02-0.61737 0.72328 0 0.50078-0.15649 1.1862-0.34773 1.5231-0.44827 0.78963-3.0866 8.2773-4.753 13.489-3.2221 10.077-8.0926 17.839-16.392 26.124-5.0562 5.047-10.187 8.7001-16.254 11.573-6.2942 2.9806-16.101 5.8331-19.336 5.6245-1.4965-0.0965-1.6641-0.19594-1.7624-1.0458-0.14327-1.2386 1.2366-2.1796 8.6008-5.8656 6.607-3.307 11.785-6.6992 16.113-10.555 10.158-9.0505 17.205-19.96 20.69-32.03 0.71893-2.4902 2.5969-11.512 2.4239-11.644-0.0513-0.0393-1.6014-0.26316-3.4446-0.49738-1.8433-0.23422-3.8433-0.50851-4.4446-0.60953l-1.0932-0.18366-0.23219 2.2215c-0.36995 3.5394-1.2284 6.5052-3.3054 11.419-5.251 12.423-8.9013 17.851-17.792 26.458-4.321 4.1831-9.0444 7.8169-13.911 10.702-5.5701 3.3022-14.989 6.2956-22.453 7.1354-3.3768 0.37997-3.8702 0.3631-4.668-0.15965-0.49066-0.32149-0.8921-0.87815-0.8921-1.237 0-1.0433 2.732-3.2778 6.7157-5.4926 13.452-7.4785 20.158-12.206 27.007-19.039 5.271-5.2581 9.0885-10.482 12.134-16.604 2.4018-4.8281 5.0335-11.948 5.4955-14.868l0.2314-1.4627-3.8316-0.21579c-2.1074-0.11869-4.8238-0.28794-6.0365-0.37613-1.7811-0.12952-2.2049-0.0603-2.2049 0.36034 0 0.28638-0.14022 0.79634-0.31161 1.1333s-0.64123 1.8178-1.0441 3.2908c-1.8384 6.7219-6.9703 17.007-11.425 22.898-6.547 8.6576-16.063 17.449-23.789 21.979-4.9328 2.8919-8.6461 4.1472-9.7912 3.3099-1.3984-1.0225-0.49185-2.1715 9.6431-12.221 10.076-9.9916 12.893-13.302 17.135-20.137 4.1697-6.7186 7.7056-14.787 8.4585-19.301l0.25008-1.4993-8.4095 6e-3c-4.6252 4e-3 -9.9176 0.16352-11.761 0.35591-3.7875 0.39532-12.775 2.4845-16.228 3.772-3.2988 1.2303-11.727 5.5267-17.462 8.9016-11.702 6.8863-15.103 8.7592-19.932 10.978-10.193 4.6843-22.471 8.8122-26.635 8.9546-1.3582 0.0465-4.5332 0.20797-7.0556 0.35887-4.5543 0.27246-11.307-0.11617-15.875-0.91358-2.7106-0.47322-16.757-4.517-20.5-5.9015-1.5736-0.58214-5.0661-2.1623-7.7611-3.5115-5.8215-2.9144-20.26-9.1468-26.949-11.632-7.4328-2.762-16.596-5.4732-21.872-6.4712-2.3048-0.43596-7.6784-2.5236-11.289-4.3858-1.0672-0.5504-2.2194-0.95989-2.5605-0.90997-0.78345 0.11466-5.2233-0.76897-10.582-2.106-3.9939-0.99654-5.977-1.2568-15.962-2.095-7.7186-0.64792-15.933-2.6771-21.786-5.3816-3.3139-1.5313-11.768-6.8158-12.441-7.7764-0.66956-0.95594-0.6575-2.3868 0.0529-6.2696l0.57407-3.1378-1.4721-1.3225c-2.0849-1.8731-2.2868-3.381-0.69539-5.1935 1.4566-1.659 3.3353-2.4867 8.0749-3.5576 5.8409-1.3197 12.902-1.9041 27.34-2.2629 21.56-0.53572 22.504-0.62374 29.163-2.7215l3.0579-0.96318-0.50022-0.96732c-0.27512-0.53203-0.50022-1.8776-0.50022-2.9901 0-2.442 0.93817-4.5795 2.6821-6.1106 0.67267-0.59061 1.1454-1.0738 1.0505-1.0738-0.0949 0-2.6007-0.70333-5.5685-1.563-5.782-1.6748-10.279-3.4508-12.56-4.9606-1.4065-0.93076-2.1739-2.4473-1.5528-3.0685 0.18847-0.18847 2.2334 0.26035 5.0265 1.1032 6.3152 1.9057 13.684 3.5673 16.92 3.8154 3.404 0.26095 14.011 0.21391 21.76-0.0965 5.1564-0.20655 6.0954-0.32951 6.2862-0.82324 0.12339-0.31923 0.31544-2.4947 0.42677-4.8345 0.6081-12.78-5.1944-20.082-24.946-31.395-5.9146-3.3875-21.287-11.043-27.104-13.497-5.528-2.3327-14.746-5.441-19.493-6.5732-4.5998-1.0971-13.708-2.6418-17.432-2.9565-2.7313-0.2308-2.8258-0.26905-2.9317-1.1865-0.16105-1.3944 0.80761-1.8295 6.6359-2.9806 4.832-0.95433 5.6134-1.0097 14.111-0.99963 7.7305 0.0091 9.6137 0.12144 13.389 0.79835 14.161 2.5393 28.019 7.7117 39.064 14.581 7.7082 4.7938 17.176 13.539 21.919 20.245 2.9719 4.2022 6.0225 10.388 7.8548 15.927 1.3859 4.1897 1.5102 4.8775 1.6562 9.167l0.15789 4.6375 2.1651 0.20198c1.1908 0.11109 4.3876 0.29777 7.104 0.41484s7.3246 0.44121 10.24 0.7203c2.9158 0.2791 6.2496 0.49083 7.4083 0.47052 1.1587-0.0203 6.2219 0.23333 11.252 0.56365 7.1396 0.46888 12.245 0.56222 23.283 0.42569 13.249-0.16387 14.649-0.24332 22.252-1.2623 11.276-1.5112 22.924-3.3431 30.568-4.8076 3.5603-0.68194 10.283-1.9499 14.94-2.8176 4.6567-0.86772 16.809-3.2392 27.006-5.27 27.006-5.3787 38.061-7.1011 55.956-8.7182 12.048-1.0887 31.207-1.0865 43.685 5e-3 18.385 1.6082 37.353 5.1265 50.624 9.3897 9.5912 3.0813 22.71 8.8549 29.372 12.926 6.5549 4.0062 9.593 6.4229 15.435 12.278 8.7939 8.8139 11.479 12.999 15.015 23.403 3.3451 9.8434 6.3752 23.294 7.5667 33.587 1.037 8.9589 0.73621 23.555-0.71974 34.925-2.2774 17.785-7.6265 33.755-15.831 47.264-6.7732 11.153-18.105 23.985-28.765 32.572-9.0526 7.293-18.117 12.157-32.068 17.209-11.297 4.0903-17.916 5.8861-27.399 7.4336-7.5372 1.23-19.004 1.4576-25.224 0.5008zm24.518-2.271c9.4452-1.5304 16.08-3.3289 27.399-7.4273 16.189-5.8618 25.029-10.956 36.791-21.203l3.153-2.7469-3.916-1.7038c-4.6526-2.0242-9.9917-4.9948-12.881-7.1668-3.7038-2.7842-10.302-10.203-12.823-14.418l-1.1394-1.9049-4.027 1.9141c-2.2148 1.0528-5.5645 2.4726-7.4438 3.1551-7.3368 2.6646-23.513 7.9203-25.008 8.1253-1.1919 0.16337-2.1506 0.6744-3.9274 2.0936-4.24 3.3865-9.6882 6.8692-13.816 8.8318-2.2313 1.0608-4.3326 2.078-4.6695 2.2604-0.33694 0.18239-1.091 0.33161-1.6757 0.33161-1.2965 0-1.2807-0.33179-0.35049 7.3465 0.74729 6.1685 2.5764 14.451 4.2787 19.376 0.55323 1.6004 1.0059 3.2496 1.0059 3.6649 0 0.75234 0.0247 0.75438 6.791 0.55661 4.733-0.13832 8.448-0.46697 12.259-1.0844zm-20.997 0.0386c-0.12664-0.43656-0.54454-1.6608-0.92868-2.7205-0.9742-2.6874-3.3882-12.612-3.6676-15.078l-0.23171-2.0451-8.3426-0.0363c-6.4295-0.0279-9.7178-0.2165-14.34-0.82208-10.242-1.3419-16.365-3.191-38.629-11.665-6.2599-2.3826-15.962-5.7291-19.909-6.8675-4.7298-1.364-14.39-3.093-18.279-3.2716l-3.4396-0.15801v1.4281c0 0.78546-0.41107 2.5069-0.91349 3.8254-1.4356 3.7676-1.6787 4.8074-1.4316 6.1248 0.19305 1.029 2.5395 4.7565 4.1938 6.6621 0.24437 0.28148 0.52369 0.89814 0.6207 1.3703 0.17015 0.82818 0.45724 0.906 8.1139 2.1992 4.3656 0.73737 10.874 1.9916 14.464 2.7873 10.298 2.2826 38.835 9.1356 44.274 10.632 13.556 3.7298 26.83 6.7774 34.925 8.0188 3.5692 0.54733 3.7848 0.52384 3.5215-0.38397zm-5.2659-21.862c0.23149-0.23146-1.51-14.311-2.1502-17.384-0.28293-1.3582-0.51456-2.5789-0.51474-2.7127-3.5e-4 -0.30234-3.7434-1.4459-12.952-3.9569-3.9219-1.0695-11.779-3.6336-17.46-5.6981-11.436-4.1557-13.232-4.8799-24.445-9.858-14.175-6.2927-20.633-8.2585-32.985-10.039-14.606-2.1058-23.781-0.13753-26.912 5.7733-0.60991 1.1513-0.7668 2.0556-0.77296 4.4553-7e-3 2.8218 0.0697 3.1394 1.227 5.0604 1.4298 2.3736 4.3589 4.746 8.5907 6.958 2.5794 1.3484 5.5204 3.8197 5.5204 4.6389 0 0.20807 0.55114 0.28377 1.3229 0.18172 2.8133-0.37201 15.007 1.5863 21.454 3.4456 3.9644 1.1433 13.678 4.495 19.909 6.87 24.846 9.4696 31.419 11.267 45.156 12.35 3.7283 0.2939 14.696 0.23245 15.012-0.0841zm3.2486-10.131c0.33691-0.18239 2.4382-1.1996 4.6695-2.2604 4.1636-1.9796 10.914-6.2229 12.171-7.6503l0.70556-0.80147-1.2347 0.24797c-3.4411 0.69112-10.927 1.2958-15.069 1.2172-2.5641-0.0487-4.7441-6e-3 -4.8444 0.0939-0.10033 0.1003 0.0401 1.5214 0.312 3.1579 0.27188 1.6365 0.5963 3.7296 0.72083 4.6512 0.20031 1.482 0.32653 1.6757 1.0916 1.6757 0.47583 0 1.1408-0.14922 1.4777-0.33161zm96.749-6.3712c15.125-16.856 23.61-34.127 27.993-56.974 1.4737-7.6831 2.6879-20.31 2.6928-28.003v-2.6028l-1.0218 0.83896c-0.56198 0.46143-2.1098 1.7642-3.4396 2.8951-1.3298 1.1309-5.1827 3.8894-8.5619 6.1302-13.749 9.1168-24.495 14.575-46.42 23.579-2.7164 1.1155-6.1657 2.64-7.6651 3.3878-1.4994 0.74782-3.0378 1.3597-3.4188 1.3597-0.38089 0-0.79068 0.15875-0.91059 0.35278-0.11991 0.19402-0.50916 0.35277-0.86501 0.35277-1.1681 0-1.0863 1.0519 0.29616 3.8093 3.3704 6.7224 5.282 13.998 5.5335 21.062 0.12475 3.502 0.24603 4.0933 1.2433 6.0613 1.4661 2.8931 4.9982 7.3218 8.9525 11.225 3.7044 3.6564 8.2512 6.5378 15.133 9.5906 2.3531 1.0438 4.5166 2.0363 4.8076 2.2057 0.62561 0.36404 0.42982 0.54667 5.6491-5.2699zm-161.23-39.173c4.4058-1.1408 12.124-4.7338 18.494-8.6092 10.138-6.1679 15.767-12.311 20.958-22.87 4.8562-9.8795 9.0595-24.455 8.8126-30.559l-0.10537-2.6054-1.4993-0.44153-1.4993-0.44154v0.9749c0 5.5745-4.2962 18.137-9.0468 26.454-4.1058 7.188-9.42 13.864-17.413 21.874-5.7288 5.7415-9.7987 9.0789-16.591 13.605-2.8072 1.8705-4.7865 3.3173-4.3984 3.2152 0.38806-0.10212 1.4178-0.3701 2.2883-0.59551zm-11.99-12.179c10.657-3.2046 18.58-7.7789 25.601-14.78 7.744-7.7227 12.711-15.733 15.867-25.59 0.71455-2.2313 2.1541-6.4465 3.1989-9.3671 1.6876-4.7172 2.1099-6.1523 1.8116-6.1563-0.0485-7e-4 -1.6721-0.30848-3.608-0.68408-1.9359-0.3756-3.5458-0.65288-3.5774-0.61618-0.0318 0.0367-0.47819 2.2098-0.99225 4.8292-1.5183 7.7362-2.9744 12.21-5.9139 18.168-4.8899 9.9121-14.268 20.552-24.037 27.272-1.7791 1.2238-6.0525 3.6492-9.4965 5.3898-3.444 1.7406-6.2618 3.2255-6.2618 3.2999 0 0.2083 4.0717-0.76192 7.4083-1.7653zm130.8 0.90472c0.80317-0.38806 1.7096-0.70556 2.0144-0.70556 0.30473 0 1.7808-0.61184 3.2802-1.3596 1.4994-0.74782 4.9487-2.2723 7.6651-3.3878 21.278-8.7378 32.21-14.244 45.332-22.833 5.9062-3.8659 9.0171-6.176 12.42-9.2226l2.4231-2.1694-0.21269-2.474c-1.2227-14.222-3.8765-27.229-8.078-39.589-3.4738-10.22-6.2689-14.633-14.488-22.873-5.289-5.3028-8.5184-7.8486-14.904-11.749-2.8744-1.7558-11.217-5.9786-14.327-7.252-1.2415-0.50832-1.3409-0.50795-1.1444 4e-3 1.1022 2.8724 1.1412 17.976 0.0661 25.664-2.2993 16.444-6.9578 31.114-13.94 43.898-5.2684 9.6467-8.7936 14.744-13.141 19-2.6863 2.63-9.1105 7.7173-11.61 9.1938-0.56522 0.33389-1.024 0.77128-1.0195 0.97198 5e-3 0.2007 1.0551 1.5555 2.3346 3.0107 5.0702 5.7662 10.66 13.562 14.257 19.885 0.84279 1.4813 1.5503 2.6932 1.5723 2.6932 0.0219 0 0.69709-0.3175 1.5003-0.70556zm-157.78-3.9275c3.636-0.58701 9.8012-2.3436 13.441-3.8296 10.335-4.2197 22.418-14.363 29.211-24.521 3.2861-4.914 8.6822-16.61 9.8472-21.344 0.7697-3.1277 1.0905-5.8669 0.71425-6.0994-0.1714-0.10592-1.9904-0.30505-4.0423-0.4425l-3.7307-0.2499-0.2304 1.681c-0.40737 2.9721-3.0002 10.088-5.5261 15.165-2.8722 5.7737-6.4715 10.799-11.45 15.986-7.216 7.518-14.603 12.843-28.684 20.677-1.9942 1.1095-4.058 2.4044-4.5861 2.8776l-0.96031 0.86034 1.9403-0.20919c1.0672-0.11505 2.8928-0.36296 4.0569-0.5509zm-6.5479-8.8814c7.8593-4.4278 17.036-12.762 23.577-21.41 2.7861-3.6843 6.3819-9.9404 8.2719-14.392 2.0973-4.9396 3.8036-9.9092 3.8036-11.078 0-0.46615 0.19647-1.044 0.4366-1.2842 0.34695-0.34694-0.32-0.41576-3.248-0.33514l-3.6846 0.10147-0.44269 2.1907c-1.4439 7.1451-6.4046 16.987-13.113 26.017-1.7565 2.3643-5.8392 6.726-12.28 13.119-5.3068 5.2677-9.6487 9.6707-9.6487 9.7844 0 0.36434 3.62-1.1882 6.3285-2.7141zm146.15-15.635c9.0213-6.1268 13.121-10.381 18.387-19.078 8.9304-14.75 13.845-27.606 16.965-44.376 1.4348-7.7126 1.7815-11.615 1.7864-20.108 4e-3 -6.6987-0.10703-8.5495-0.63595-10.611l-0.64061-2.4975-4.8274-1.797c-11.949-4.4479-25.181-7.5946-42.584-10.127-6.4919-0.94471-21.246-2.2237-27.563-2.3894l-3.9364-0.10325 2.1516 1.9448c2.7579 2.4928 7.1856 8.4511 9.0145 12.131 2.0692 4.1632 3.8767 9.6913 4.686 14.332 1.3384 7.6748 0.86907 17.283-1.1718 23.989-1.6306 5.3575-5.2838 12.732-9.6098 19.398-1.2102 1.865-3.0972 5.1748-4.1932 7.3552-1.096 2.1804-2.3914 4.551-2.8786 5.2679s-0.88576 1.4126-0.88576 1.546c0 0.13339 0.83344 0.51502 1.8521 0.84806 13.623 4.4541 27.666 13.119 37.651 23.233 1.645 1.6661 3.1073 3.0294 3.2496 3.0294s1.5746-0.89363 3.1828-1.9859zm-219.86-1.8616c4.1451-0.37138 10.243-2.1701 18.771-5.5372 8.9373-3.5286 12.402-5.3156 27.266-14.064 5.9674-3.5122 15.098-8.1409 18.481-9.369l2.2529-0.81787-0.23654-3.7314c-0.32864-5.1845-0.74243-7.5411-2.3586-13.433-0.77177-2.8134-1.6442-6.6234-1.9388-8.4667-0.29458-1.8433-1.0907-5.727-1.7692-8.6306-1.5738-6.735-1.8352-9.7404-1.7426-20.033 0.0436-4.8469-0.0597-8.3785-0.24524-8.3785-0.17638 0-2.8894 0.48158-6.0288 1.0702-7.1783 1.3458-19.182 3.2149-29.697 4.6242-7.6086 1.0197-9.0037 1.0987-22.401 1.2681-13.907 0.17581-27.246-0.25996-40.569-1.3254-17.563-1.4044-37.569-1.907-50.503-1.2687l-5.8763 0.29001 1.3596 1.7964c2.1266 2.8097 2.521 5.5323 1.3813 9.5334-0.44228 1.5527-2.4423 3.9137-3.9957 4.7171-1.7393 0.89942-5.1024 0.75475-7.2584-0.31224l-1.8277-0.90451-1.3821 0.66776c-2.2897 1.1063-7.6932 2.3966-11.626 2.7763-2.0373 0.19668-10.292 0.51149-18.344 0.69959-8.2134 0.19186-16.886 0.58297-19.756 0.89093-6.0816 0.65264-12.047 1.9293-14.326 3.066-3.4868 1.7388-3.1941 3.2281 1.0605 5.3956l2.7698 1.4111 11.333 0.23793c9.2006 0.19316 12.628 0.41012 18.213 1.1529 16.293 2.1671 24.597 2.8994 37.025 3.2649 4.8745 0.14339 7.8649 0.37671 8.4024 0.65558 1.4766 0.7661 2.7789 3.9892 1.8449 4.5664-0.19403 0.11991-0.35278 0.52831-0.35278 0.90755s-0.13753 0.96518-0.30562 1.3021c-0.1681 0.33692-1.0015 2.118-1.8521 3.9581-1.8349 3.9695-3.5043 5.9207-6.6398 7.7606-2.1175 1.2426-4.9499 3.7107-4.5839 3.9944 0.56246 0.43606 4.2352 1.6965 6.3921 2.1937 7.8584 1.8115 15.002 3.9385 22.159 6.5981 6.6884 2.4855 21.127 8.7178 26.949 11.632 2.695 1.3492 6.1875 2.9294 7.7611 3.5115 3.9288 1.4534 17.889 5.4551 20.685 5.9293 6.2276 1.0562 12.816 1.1786 21.511 0.39962zm-20.102-29.319c-13.427-1.1184-23.361-3.3369-28.245-6.3078-2.8161-1.713-6.8551-5.1916-7.9516-6.8485-0.99065-1.497-1.0371-3.1676-0.0931-3.3464 0.39942-0.0757 0.87675 0.47691 1.5211 1.7609 1.6975 3.3825 6.9814 7.1676 12.604 9.0286 10.459 3.4617 29.199 5.136 40.242 3.5952 8.4314-1.1764 21.218-6.2986 29.596-11.856 3.4794-2.3079 9.2888-7.6072 11.321-10.327 0.98131-1.3134 2.0306-1.3242 2.0306-0.0209 0 1.2698-8.4166 9.3417-12.646 12.128-8.3813 5.5216-20.946 10.568-29.511 11.854-3.4211 0.51334-14.408 0.71126-18.867 0.33986zm193.39 3.4391c0.71804-1.2093 2.0391-3.6775 2.9357-5.4849 0.89662-1.8074 2.6344-4.8335 3.8616-6.7248 8.2811-12.761 11.574-22.298 11.526-33.381-0.0477-11.004-3.3212-21.124-9.5446-29.506-2.858-3.8492-4.7856-5.7288-7.4316-7.2462-1.569-0.89983-1.7003-0.91377-8.297-0.88069-7.3303 0.0367-19.664 0.99289-30.37 2.3544-10.822 1.3763-20.7 3.1024-42.302 7.392-11.06 2.1962-23.006 4.5203-26.547 5.1646l-6.4382 1.1715-0.0275 2.6611c-0.0862 8.3471 0.0254 18.018 0.22203 19.242 0.12468 0.77611 0.7591 3.713 1.4098 6.5264 0.65072 2.8134 1.4242 6.6234 1.7188 8.4667 0.2946 1.8433 1.1668 5.6533 1.9383 8.4667 1.6532 6.0289 2.0432 8.2717 2.3601 13.573l0.23584 3.9447 4.0558-0.98936c5.9846-1.4599 9.6455-1.7114 24.901-1.7112 29.627 3.6e-4 50.915 2.3364 68.842 7.5541 2.9104 0.84708 5.371 1.5549 5.4681 1.5728 0.097 0.018 0.76387-0.9567 1.482-2.166zm-278.77-7.3176c0.87312-0.80964 2.6194-2.0777 3.8806-2.8179 1.2612-0.74018 2.6335-1.7178 3.0496-2.1726 1.2446-1.3602 4.0926-7.3471 3.5727-7.5102-0.24673-0.0774-1.0278-0.23667-1.7357-0.3539-2.7081-0.44846-3.9737-2.7031-2.6101-4.6498 0.51064-0.72904 0.49145-0.73251-5.3799-0.97293-11.76-0.48156-19.137-1.1582-34.996-3.2103-3.8288-0.49539-9.6167-0.96868-13.053-1.0674l-6.1736-0.1773 5.2917 1.4145c13.96 3.7315 19.035 6.1236 33.161 15.63 9.2726 6.24 12.485 8.1269 13.044 7.661 0.19874-0.16567 1.0757-0.96365 1.9488-1.7733zm-10.936-0.81842c0-0.0641-2.9766-2.1161-6.6146-4.5601-13.205-8.8714-19.28-11.48-35.895-15.411-4.2686-1.01-8.8987-2.1868-10.289-2.6152l-2.528-0.7789-0.16436 1.2455c-0.0904 0.68504-0.37115 2.2445-0.62391 3.4655-0.44997 2.1736-0.44163 2.2371 0.39926 3.0395 1.2296 1.1734 7.4232 4.9634 10.737 6.57 5.8337 2.8286 14.209 4.9466 22.225 5.6203 9.8939 0.83149 12.163 1.143 16.757 2.3006 4.4322 1.1168 5.9972 1.41 5.9972 1.1234zm22.773-14.256c0.74142-1.014-0.38126-2.5604-1.8588-2.5604-1.2256 0-2.7205 1.1317-2.4758 1.8741 0.4008 1.2158 3.5794 1.7191 4.3345 0.68631zm-4.3925-25.584c1.1925-0.79425 2.1759-2.3775 2.6265-4.2287 0.2291-0.94111 0.1921-0.97014-1.2364-0.97014-2.4412 0-4.2253-1.3728-4.2405-3.2632-8e-3 -0.93894-0.0698-0.97014-1.9344-0.97014-1.5373 0-2.0802 0.16037-2.6873 0.79375-1.7952 1.873-2.2431 4.8969-1.022 6.8997 1.4622 2.3983 6.0835 3.3443 8.4941 1.7387zm1.0223-11.532c0-0.18471-0.71506-0.8278-1.589-1.4291-1.3347-0.9183-2.111-1.15-4.8507-1.4479-1.7939-0.19504-5.3131-0.82105-7.8204-1.3911-2.5073-0.57008-4.6133-0.98192-4.68-0.9152-0.0667 0.0667 1.1116 0.47443 2.6184 0.90603 8.4791 2.4286 10.147 3.0366 10.496 3.826 0.31712 0.71673 0.59295 0.78706 3.0868 0.78706 1.5062 0 2.7386-0.15112 2.7386-0.33583zm33.435-8.9246c-0.14745-3.895-0.31119-4.7686-1.659-8.851-1.8289-5.5396-4.8801-11.727-7.8519-15.922-4.6447-6.5564-13.188-14.422-20.82-19.166-11.071-6.8832-25.019-12.092-39.105-14.602-6.0138-1.0718-18.781-1.1556-24.148-0.15845-3.4375 0.63858-5.1123 1.2844-3.3338 1.2855 1.4229 0.0011 12.633 1.9873 15.857 2.8099 4.4642 1.1389 13.822 4.3461 18.757 6.4287 5.8167 2.4545 21.189 10.11 27.104 13.497 8.9618 5.1327 13.581 8.431 18.022 12.868 3.4296 3.4266 4.3192 4.5497 5.5293 6.981 2.172 4.3638 2.6979 7.2675 2.456 13.56l-0.20008 5.206 2.1777 0.12454c1.1977 0.0685 3.3478 0.15513 4.7779 0.19252l2.6002 0.068z" stroke-width=".35278"/>
 </g>
</svg>
