<?xml version="1.0" encoding="UTF-8" standalone="no"?>
<!-- Created with Inkscape (http://www.inkscape.org/) -->

<svg
   xmlns:dc="http://purl.org/dc/elements/1.1/"
   xmlns:cc="http://creativecommons.org/ns#"
   xmlns:rdf="http://www.w3.org/1999/02/22-rdf-syntax-ns#"
   xmlns:svg="http://www.w3.org/2000/svg"
   xmlns="http://www.w3.org/2000/svg"
   xmlns:sodipodi="http://sodipodi.sourceforge.net/DTD/sodipodi-0.dtd"
   xmlns:inkscape="http://www.inkscape.org/namespaces/inkscape"
   width="1850.1754"
   height="1048.306"
   viewBox="0 0 489.52557 277.36432"
   version="1.1"
   id="svg8"
   inkscape:version="0.92.3 (2405546, 2018-03-11)"
   sodipodi:docname="shrimp_original_2pxstroke_plain2_.svg">
  <defs
     id="defs2" />
  <sodipodi:namedview
     id="base"
     pagecolor="#ffffff"
     bordercolor="#666666"
     borderopacity="1.0"
     inkscape:pageopacity="0.0"
     inkscape:pageshadow="2"
     inkscape:zoom="0.5"
     inkscape:cx="869.17859"
     inkscape:cy="510.37714"
     inkscape:document-units="px"
     inkscape:current-layer="layer1"
     showgrid="false"
     showborder="false"
     fit-margin-top="0"
     fit-margin-left="0"
     fit-margin-right="0"
     fit-margin-bottom="0"
     inkscape:window-width="1920"
     inkscape:window-height="1009"
     inkscape:window-x="0"
     inkscape:window-y="0"
     inkscape:window-maximized="1"
     units="px" />
  <metadata
     id="metadata5">
    <rdf:RDF>
      <cc:Work
         rdf:about="">
        <dc:format>image/svg+xml</dc:format>
        <dc:type
           rdf:resource="http://purl.org/dc/dcmitype/StillImage" />
        <dc:title></dc:title>
      </cc:Work>
    </rdf:RDF>
  </metadata>
  <g
     inkscape:label="Layer 1"
     inkscape:groupmode="layer"
     id="layer1"
     transform="translate(85.2795,-63.531294)">
    <path
       style="fill:#000000;stroke-width:0.35277775"
       d="m 273.62608,340.30331 c -9.47452,-1.45754 -21.25331,-4.1353 -35.63056,-8.10017 -5.4108,-1.49214 -33.90198,-8.33614 -44.2589,-10.63163 -3.58142,-0.79378 -10.10348,-2.05161 -14.49347,-2.79516 -4.38998,-0.74355 -8.32566,-1.56665 -8.74595,-1.82912 -0.4203,-0.26246 -0.76566,-0.79622 -0.76748,-1.18611 -0.004,-0.78606 -1.49069,-3.42667 -3.23727,-5.74876 -0.93514,-1.24322 -1.16125,-1.90175 -1.27188,-3.70416 -0.11302,-1.84126 0.0468,-2.64277 0.99877,-5.00793 2.3518,-5.84323 1.70566,-8.12207 -2.9716,-10.48029 -5.21018,-2.62692 -8.98828,-5.90588 -10.59956,-9.19924 -0.9182,-1.87671 -0.97963,-2.26445 -0.83775,-5.28715 0.18276,-3.89357 0.8138,-5.33989 3.37521,-7.73579 3.00449,-2.81035 5.86811,-3.93291 11.53056,-4.52008 6.735,-0.69838 19.08622,0.78554 29.36058,3.52749 5.26601,1.40535 9.49941,3.01719 18.98819,7.22964 11.2133,4.97804 13.00918,5.70226 24.44513,9.85798 5.68117,2.06449 13.53824,4.62697 17.46018,5.69437 3.92194,1.0674 8.89088,2.48701 11.04205,3.15468 3.69803,1.14779 4.20768,1.21637 9.34861,1.25737 2.99057,0.024 6.94549,-0.13925 8.78875,-0.36245 1.84326,-0.22317 4.70076,-0.55072 6.35,-0.72792 4.78321,-0.51386 6.26375,-0.91017 17.81528,-4.76864 13.28677,-4.43808 15.54444,-5.29163 20.27463,-7.66505 l 3.69408,-1.85353 0.0534,-2.11666 c 0.0781,-3.09118 -1.16043,-10.45338 -2.37377,-14.11111 -2.74373,-8.27123 -10.39456,-21.33127 -18.18474,-31.04153 -3.9158,-4.88097 -11.6091,-12.81739 -15.98725,-16.49243 -4.61088,-3.87041 -11.8201,-8.59144 -17.59081,-11.51956 -5.51624,-2.79898 -8.58227,-4.07615 -14.95294,-6.22875 l -4.49792,-1.51981 v 2.83035 c 0,6.71799 -4.09532,20.79536 -8.88365,30.53679 -5.23604,10.6523 -11.64724,17.62049 -22.01602,23.92872 -9.27764,5.6444 -18.92317,9.52436 -23.01937,9.25965 -1.56728,-0.10129 -1.64346,-0.15527 -1.64346,-1.16454 0,-0.97772 0.46234,-1.36737 6.06949,-5.11528 3.33821,-2.23132 7.54307,-5.24757 9.34413,-6.70278 6.12755,-4.9509 15.3455,-14.80292 20.29952,-21.69583 4.2847,-5.96167 8.22829,-13.97605 10.81627,-21.98145 1.17811,-3.6443 2.33032,-9.00685 2.33032,-10.84573 0,-0.8717 -0.70291,-1.20481 -4.05695,-1.9226 -0.97014,-0.20762 -2.04171,-0.46173 -2.38125,-0.56471 -0.47685,-0.14461 -0.61737,0.02 -0.61737,0.72328 0,0.50078 -0.15649,1.18617 -0.34773,1.52308 -0.44827,0.78963 -3.08663,8.27729 -4.75297,13.48896 -3.2221,10.07742 -8.09255,17.83933 -16.39223,26.12405 -5.05616,5.04703 -10.18668,8.70006 -16.25428,11.57335 -6.29423,2.98061 -16.1009,5.83312 -19.3365,5.62451 -1.49651,-0.0965 -1.66411,-0.19594 -1.76242,-1.04576 -0.14327,-1.23856 1.23656,-2.17959 8.60078,-5.86562 6.60704,-3.30704 11.78549,-6.6992 16.11262,-10.55461 10.15781,-9.05046 17.20481,-19.95993 20.68957,-32.02953 0.71893,-2.49015 2.59687,-11.51162 2.4239,-11.64433 -0.0513,-0.0393 -1.60136,-0.26316 -3.44462,-0.49738 -1.84327,-0.23422 -3.84334,-0.50851 -4.4446,-0.60953 l -1.09322,-0.18366 -0.23219,2.22152 c -0.36995,3.53945 -1.22844,6.50518 -3.30545,11.41894 -5.25101,12.42279 -8.90134,17.85106 -17.79233,26.45833 -4.32102,4.18314 -9.04438,7.81692 -13.91126,10.70222 -5.57013,3.30224 -14.98913,6.29559 -22.45251,7.13541 -3.37682,0.37997 -3.87019,0.3631 -4.668,-0.15965 -0.49066,-0.32149 -0.8921,-0.87815 -0.8921,-1.23702 0,-1.04334 2.73205,-3.27779 6.71572,-5.49255 13.45152,-7.47851 20.15765,-12.20603 27.00741,-19.03902 5.27102,-5.25811 9.08854,-10.4819 12.13401,-16.60383 2.40181,-4.82808 5.03352,-11.94828 5.49547,-14.86824 l 0.2314,-1.46268 -3.83159,-0.21579 c -2.10738,-0.11869 -4.82378,-0.28794 -6.03646,-0.37613 -1.78114,-0.12952 -2.20486,-0.0603 -2.20486,0.36034 0,0.28638 -0.14022,0.79634 -0.31161,1.13326 -0.17139,0.33692 -0.64123,1.81775 -1.04409,3.29075 -1.83842,6.72188 -6.97026,17.00694 -11.42529,22.89821 -6.547,8.65765 -16.06259,17.44923 -23.78882,21.9788 -4.93282,2.89191 -8.64607,4.14717 -9.79115,3.30986 -1.39841,-1.02254 -0.49185,-2.17148 9.64307,-12.22121 10.07631,-9.99161 12.89321,-13.30199 17.13524,-20.13707 4.16972,-6.71857 7.70557,-14.78667 8.45848,-19.30052 l 0.25008,-1.4993 -8.40948,0.006 c -4.62522,0.004 -9.9176,0.16352 -11.76087,0.35591 -3.78752,0.39532 -12.77536,2.48447 -16.22777,3.77201 -3.29884,1.23027 -11.72729,5.52672 -17.4625,8.90162 -11.70239,6.88629 -15.10271,8.75917 -19.93195,10.97844 -10.19329,4.68432 -22.471153,8.81216 -26.634723,8.95464 -1.35819,0.0465 -4.53319,0.20797 -7.05555,0.35887 -4.55431,0.27246 -11.30735,-0.11617 -15.875,-0.91358 -2.71061,-0.47322 -16.75749,-4.51699 -20.50002,-5.90149 -1.57362,-0.58214 -5.06612,-2.16233 -7.76111,-3.51152 -5.82153,-2.91443 -20.26017,-9.14682 -26.94859,-11.63228 -7.4327699,-2.76205 -16.5963199,-5.4732 -21.8722199,-6.47118 -2.3048001,-0.43596 -7.6783801,-2.52363 -11.2888901,-4.38581 -1.06715,-0.5504 -2.21936,-0.95989 -2.56046,-0.90997 -0.78345,0.11466 -5.22332,-0.76897 -10.58191,-2.10603 -3.99388,-0.99654 -5.97702,-1.25683 -15.96179,-2.09498 -7.71863,-0.64792 -15.93316,-2.67709 -21.78615,-5.38165 -3.31392,-1.53131 -11.76842,-6.8158 -12.44127,-7.77643 -0.66956,-0.95594 -0.6575,-2.38679 0.0529,-6.26961 l 0.57407,-3.13779 -1.4721,-1.3225 c -2.08494,-1.87306 -2.28685,-3.38098 -0.69539,-5.19354 1.45663,-1.65901 3.33527,-2.48668 8.07491,-3.55755 5.84094,-1.31969 12.90211,-1.90412 27.34028,-2.26287 21.56028,-0.53572 22.50355,-0.62374 29.16341,-2.72151 l 3.05786,-0.96318 -0.50022,-0.96732 c -0.27512,-0.53203 -0.50022,-1.87758 -0.50022,-2.99012 0,-2.442 0.93817,-4.57946 2.68207,-6.11062 0.67267,-0.59061 1.1454,-1.07384 1.05052,-1.07384 -0.0949,0 -2.60072,-0.70333 -5.56852,-1.56297 -5.78195,-1.67476 -10.27897,-3.4508 -12.56038,-4.96057 -1.40647,-0.93076 -2.17392,-2.44733 -1.55278,-3.06848 0.18847,-0.18847 2.23343,0.26035 5.02646,1.10318 6.31525,1.90572 13.68382,3.56732 16.91985,3.81539 3.4040101,0.26095 14.0111701,0.21391 21.76046,-0.0965 5.15644,-0.20655 6.09535,-0.32951 6.2862,-0.82324 0.12339,-0.31923 0.31544,-2.49474 0.42677,-4.83447 0.6081,-12.77989 -5.19435,-20.08236 -24.9456499,-31.394515 C -13.981573,88.338321 -29.353963,80.683199 -35.170683,78.22872 c -5.52805,-2.33268 -14.74577,-5.440955 -19.49312,-6.573213 -4.59975,-1.097061 -13.70791,-2.641815 -17.43233,-2.956549 -2.73127,-0.230805 -2.82575,-0.269046 -2.93172,-1.18654 -0.16105,-1.394393 0.80761,-1.829473 6.63588,-2.980566 4.83204,-0.954334 5.6134,-1.009685 14.11111,-0.999631 7.73051,0.0091 9.61372,0.121444 13.38868,0.798354 14.1612,2.539336 28.01863,7.711725 39.0638401,14.580868 7.70819,4.793816 17.1761199,13.538704 21.9192799,20.245351 2.9719,4.202156 6.02246,10.387696 7.85479,15.926926 1.3859,4.18966 1.51017,4.87747 1.6562,9.16699 l 0.15789,4.63747 2.16507,0.20198 c 1.19079,0.11109 4.38758,0.29777 7.10397,0.41484 2.71639,0.11707 7.32458,0.44121 10.24043,0.7203 2.91585,0.2791 6.2496,0.49083 7.40834,0.47052 1.15873,-0.0203 6.22194,0.23333 11.25158,0.56365 7.13961,0.46888 12.24499,0.56222 23.28334,0.42569 13.248613,-0.16387 14.649243,-0.24332 22.252423,-1.2623 11.2755,-1.51116 22.9236,-3.34308 30.56839,-4.80756 3.56031,-0.68194 10.28328,-1.94991 14.93995,-2.81762 4.65666,-0.86772 16.80942,-3.23924 27.00612,-5.27004 27.00638,-5.37868 38.06143,-7.1011 55.95637,-8.71824 12.04751,-1.08872 31.20652,-1.08654 43.68472,0.005 18.38495,1.60818 37.35349,5.12649 50.62361,9.38973 9.59122,3.08134 22.71007,8.85487 29.37178,12.92636 6.55493,4.00622 9.59302,6.42294 15.43495,12.27818 8.7939,8.81388 11.47875,12.99879 15.01454,23.40332 3.34507,9.84339 6.37522,23.29372 7.56673,33.58749 1.03699,8.95892 0.73621,23.55508 -0.71974,34.925 -2.27736,17.78452 -7.62649,33.75476 -15.83076,47.26365 -6.77323,11.15269 -18.10537,23.98491 -28.76451,32.57218 -9.05263,7.29304 -18.11733,12.15735 -32.06824,17.20864 -11.29693,4.09028 -17.91617,5.88613 -27.39919,7.43359 -7.53724,1.22996 -19.00389,1.4576 -25.22361,0.5008 z m 24.51805,-2.27097 c 9.44524,-1.53043 16.0799,-3.32892 27.39919,-7.42732 16.1894,-5.86175 25.02888,-10.95611 36.79105,-21.20332 l 3.15299,-2.7469 -3.91604,-1.70377 c -4.65258,-2.02421 -9.99173,-4.99481 -12.88115,-7.16683 -3.70378,-2.78419 -10.30231,-10.20339 -12.82326,-14.41813 l -1.13941,-1.90493 -4.02695,1.91414 c -2.21481,1.05279 -5.56451,2.47258 -7.44375,3.1551 -7.33676,2.66464 -23.51289,7.92032 -25.00824,8.12529 -1.19193,0.16337 -2.15057,0.6744 -3.92741,2.09359 -4.23996,3.38649 -9.68819,6.86925 -13.8159,8.83176 -2.23132,1.06083 -4.33261,2.07803 -4.66951,2.26042 -0.33694,0.18239 -1.091,0.33161 -1.67569,0.33161 -1.2965,0 -1.28066,-0.33179 -0.35049,7.34646 0.74729,6.16849 2.57637,14.4514 4.2787,19.37578 0.55323,1.60038 1.00588,3.24955 1.00588,3.66487 0,0.75234 0.0247,0.75438 6.79097,0.55661 4.73304,-0.13832 8.448,-0.46697 12.25902,-1.08443 z m -20.99659,0.0386 c -0.12664,-0.43656 -0.54454,-1.66077 -0.92868,-2.72048 -0.9742,-2.68739 -3.38819,-12.61177 -3.66762,-15.07818 l -0.23171,-2.04508 -8.34256,-0.0363 c -6.42948,-0.0279 -9.71782,-0.2165 -14.33978,-0.82208 -10.24188,-1.34193 -16.3654,-3.19105 -38.62917,-11.66474 -6.25994,-2.38255 -15.9618,-5.72914 -19.90897,-6.86748 -4.7298,-1.36402 -14.38954,-3.09295 -18.27922,-3.27163 l -3.43958,-0.15801 v 1.42812 c 0,0.78546 -0.41107,2.5069 -0.91349,3.82541 -1.43564,3.7676 -1.67869,4.80745 -1.43155,6.12482 0.19305,1.02902 2.53951,4.75654 4.19378,6.66207 0.24437,0.28148 0.52369,0.89814 0.6207,1.37033 0.17015,0.82818 0.45724,0.906 8.11389,2.19922 4.36563,0.73737 10.87438,1.99164 14.46389,2.78729 10.29776,2.28262 38.83515,9.13561 44.27361,10.63191 13.55634,3.72978 26.82999,6.77743 34.925,8.01882 3.56923,0.54733 3.78481,0.52384 3.52146,-0.38397 z m -5.26591,-21.86227 c 0.23149,-0.23146 -1.50999,-14.31074 -2.15025,-17.38425 -0.28293,-1.35819 -0.51456,-2.57891 -0.51474,-2.71268 -3.5e-4,-0.30234 -3.74336,-1.44586 -12.95192,-3.9569 -3.92193,-1.06948 -11.779,-3.63365 -17.46017,-5.69814 -11.43596,-4.15572 -13.23184,-4.87994 -24.44514,-9.85798 -14.17468,-6.29271 -20.63338,-8.25849 -32.98472,-10.03931 -14.60568,-2.10585 -23.7811,-0.13753 -26.91235,5.77327 -0.60991,1.15133 -0.7668,2.0556 -0.77296,4.45527 -0.007,2.82179 0.0697,3.13937 1.22698,5.06045 1.42976,2.37356 4.35886,4.74599 8.59066,6.95805 2.57942,1.34835 5.52045,3.81974 5.52045,4.63892 0,0.20807 0.55114,0.28377 1.32292,0.18172 2.81332,-0.37201 15.00725,1.58633 21.45421,3.44558 3.9644,1.14331 13.67758,4.49502 19.90898,6.86999 24.84628,9.46965 31.41874,11.26723 45.15556,12.35015 3.72833,0.2939 14.69591,0.23245 15.01249,-0.0841 z m 3.24855,-10.13114 c 0.33691,-0.18239 2.43819,-1.19959 4.66951,-2.26042 4.16359,-1.97958 10.91431,-6.22286 12.17083,-7.65031 l 0.70556,-0.80147 -1.23472,0.24797 c -3.44114,0.69112 -10.92729,1.29578 -15.06894,1.21715 -2.56413,-0.0487 -4.74408,-0.006 -4.84438,0.0939 -0.10033,0.1003 0.0401,1.52136 0.312,3.15789 0.27188,1.63654 0.5963,3.72961 0.72083,4.65124 0.20031,1.48195 0.32653,1.67569 1.0916,1.67569 0.47583,0 1.14078,-0.14922 1.47771,-0.33161 z m 96.74913,-6.37117 c 15.12464,-16.85568 23.61028,-34.12651 27.99263,-56.9736 1.47373,-7.68308 2.68792,-20.30989 2.69279,-28.00285 v -2.60285 l -1.02175,0.83896 c -0.56198,0.46143 -2.10979,1.76421 -3.43959,2.89506 -1.32979,1.13086 -5.18266,3.88943 -8.56188,6.13016 -13.74895,9.11682 -24.49509,14.57529 -46.41983,23.57876 -2.71639,1.11549 -6.16568,2.64001 -7.66509,3.38782 -1.49941,0.74782 -3.03784,1.35966 -3.41877,1.35966 -0.38089,0 -0.79068,0.15875 -0.91059,0.35278 -0.11991,0.19402 -0.50916,0.35277 -0.86501,0.35277 -1.16812,0 -1.08634,1.05186 0.29616,3.8093 3.37044,6.72245 5.28196,13.99806 5.53349,21.06154 0.12475,3.50199 0.24603,4.09328 1.2433,6.06128 1.46607,2.89313 4.99822,7.3218 8.95251,11.22483 3.70441,3.6564 8.25115,6.53785 15.13335,9.59061 2.35314,1.04377 4.51655,2.03634 4.80759,2.20567 0.62561,0.36404 0.42982,0.54667 5.64906,-5.2699 z M 210.65048,260.53299 c 4.40579,-1.14085 12.12396,-4.73376 18.49399,-8.60921 10.13809,-6.16788 15.76719,-12.31069 20.95768,-22.87039 4.8562,-9.87954 9.05951,-24.45512 8.81264,-30.55907 l -0.10537,-2.60542 -1.49931,-0.44153 -1.49931,-0.44154 v 0.9749 c 0,5.57454 -4.29616,18.13708 -9.04678,26.45391 -4.10576,7.18795 -9.42001,13.86382 -17.41253,21.87409 -5.72876,5.74147 -9.79874,9.07887 -16.59088,13.60458 -2.80718,1.87048 -4.78647,3.31731 -4.39842,3.21519 0.38806,-0.10212 1.41779,-0.3701 2.28829,-0.59551 z M 198.6608,248.35445 c 10.65671,-3.20457 18.57963,-7.77887 25.60055,-14.78047 7.74401,-7.72268 12.71098,-15.73309 15.86742,-25.58981 0.71455,-2.23132 2.15406,-6.44652 3.19892,-9.36712 1.68762,-4.71715 2.10993,-6.1523 1.81158,-6.15628 -0.0485,-7e-4 -1.67213,-0.30848 -3.60803,-0.68408 -1.93594,-0.3756 -3.54577,-0.65288 -3.57742,-0.61618 -0.0318,0.0367 -0.47819,2.20984 -0.99225,4.82922 -1.51829,7.73621 -2.97445,12.20963 -5.91388,18.16805 -4.88987,9.91207 -14.26795,20.55244 -24.03691,27.2723 -1.77909,1.22378 -6.05251,3.64918 -9.4965,5.38975 -3.444,1.74058 -6.26181,3.22553 -6.26181,3.29989 0,0.2083 4.07173,-0.76192 7.40833,-1.76527 z m 130.79726,0.90472 c 0.80317,-0.38806 1.70964,-0.70556 2.01436,-0.70556 0.30473,0 1.78083,-0.61184 3.28024,-1.35965 1.49941,-0.74782 4.94869,-2.27234 7.66508,-3.38783 21.27776,-8.73779 32.20995,-14.24425 45.33194,-22.83338 5.90617,-3.86594 9.01711,-6.17603 12.41986,-9.22257 l 2.42306,-2.16942 -0.21269,-2.47399 c -1.22266,-14.22233 -3.87654,-27.22876 -8.07798,-39.58927 -3.4738,-10.21989 -6.26886,-14.63269 -14.48759,-22.87294 -5.28902,-5.30285 -8.51842,-7.84865 -14.90398,-11.74915 -2.87444,-1.7558 -11.21706,-5.97857 -14.32726,-7.25201 -1.24149,-0.50832 -1.34094,-0.50795 -1.14437,0.004 1.10221,2.87237 1.14116,17.97619 0.0661,25.6643 -2.29926,16.4435 -6.95776,31.11351 -13.93998,43.89823 -5.26845,9.64673 -8.79362,14.74355 -13.14136,19.00024 -2.68626,2.63002 -9.11052,7.71729 -11.61005,9.19379 -0.56522,0.33389 -1.02401,0.77128 -1.01953,0.97198 0.005,0.2007 1.05509,1.55553 2.33465,3.01074 5.07015,5.7662 10.65978,13.56223 14.25691,19.88454 0.84279,1.48128 1.55032,2.69324 1.57226,2.69324 0.0219,0 0.69709,-0.3175 1.50029,-0.70556 z M 171.6733,245.33163 c 3.63598,-0.58701 9.80116,-2.34365 13.44061,-3.82963 10.33487,-4.2197 22.41843,-14.36307 29.2111,-24.52085 3.2861,-4.91403 8.68217,-16.61031 9.84715,-21.3442 0.7697,-3.12769 1.09046,-5.8669 0.71425,-6.09942 -0.1714,-0.10592 -1.99045,-0.30505 -4.04234,-0.4425 l -3.73072,-0.2499 -0.2304,1.68098 c -0.40737,2.97207 -3.00025,10.08758 -5.52611,15.165 -2.87222,5.77367 -6.47149,10.79868 -11.45006,15.98564 -7.21598,7.51803 -14.60253,12.84262 -28.68428,20.67706 -1.9942,1.10947 -4.05795,2.40438 -4.58611,2.87757 l -0.96031,0.86034 1.94028,-0.20919 c 1.06715,-0.11505 2.89278,-0.36296 4.05694,-0.5509 z m -6.54788,-8.88145 c 7.85931,-4.42782 17.03629,-12.76164 23.57661,-21.41046 2.7861,-3.68429 6.38194,-9.94044 8.27187,-14.39164 2.09729,-4.93956 3.80357,-9.90918 3.80357,-11.07803 0,-0.46615 0.19647,-1.04401 0.4366,-1.28415 0.34695,-0.34694 -0.32,-0.41576 -3.248,-0.33514 l -3.68459,0.10147 -0.44269,2.1907 c -1.44388,7.14514 -6.40456,16.98744 -13.1132,26.01745 -1.75652,2.36431 -5.83916,6.72605 -12.28001,13.11948 -5.30676,5.26769 -9.64866,9.67069 -9.64866,9.78443 0,0.36434 3.61995,-1.18816 6.3285,-2.71411 z m 146.14607,-15.63521 c 9.0213,-6.12683 13.12121,-10.38087 18.38716,-19.07839 8.93036,-14.74989 13.84544,-27.60631 16.96526,-44.37602 1.43482,-7.71256 1.78149,-11.61459 1.78636,-20.10833 0.004,-6.6987 -0.10703,-8.5495 -0.63595,-10.61141 l -0.64061,-2.49752 -4.82745,-1.79695 c -11.949,-4.44789 -25.18067,-7.59458 -42.5839,-10.12709 -6.49193,-0.94471 -21.24601,-2.22373 -27.5632,-2.38943 l -3.9364,-0.10325 2.15163,1.94477 c 2.75787,2.49278 7.18555,8.45107 9.01453,12.13082 2.06922,4.16317 3.87674,9.6913 4.68605,14.332 1.3384,7.67475 0.86907,17.28349 -1.17179,23.98889 -1.63057,5.35754 -5.28383,12.73189 -9.60984,19.39826 -1.21024,1.86497 -3.09718,5.17482 -4.19322,7.35524 -1.09605,2.18042 -2.39141,4.55098 -2.87856,5.2679 -0.48715,0.71692 -0.88576,1.41263 -0.88576,1.54603 0,0.13339 0.83344,0.51502 1.85209,0.84806 13.62336,4.45411 27.66645,13.11947 37.65123,23.23293 1.64496,1.66614 3.10726,3.02935 3.24957,3.02935 0.14231,0 1.57456,-0.89363 3.1828,-1.98586 z M 91.416367,218.95338 c 4.14512,-0.37138 10.242893,-2.17013 18.771043,-5.53718 8.93733,-3.5286 12.40175,-5.31558 27.26645,-14.06431 5.96739,-3.51215 15.0977,-8.14088 18.48066,-9.36901 l 2.25288,-0.81787 -0.23654,-3.73139 c -0.32864,-5.18448 -0.74243,-7.54106 -2.35863,-13.43278 -0.77177,-2.8134 -1.64424,-6.6234 -1.93883,-8.46667 -0.29458,-1.84326 -1.09074,-5.72701 -1.76923,-8.63055 -1.57382,-6.73505 -1.83524,-9.74038 -1.74256,-20.03264 0.0436,-4.84687 -0.0597,-8.37847 -0.24524,-8.37847 -0.17638,0 -2.88935,0.48158 -6.02882,1.07018 -7.17829,1.34582 -19.1817,3.21488 -29.69702,4.62415 -7.60855,1.01971 -9.00372,1.09868 -22.401393,1.26806 -13.90683,0.17581 -27.24559,-0.25996 -40.56944,-1.32539 -17.56329,-1.40444 -37.56889,-1.907 -50.50265986,-1.26868 l -5.87629004,0.29001 1.35964,1.79639 c 2.12655,2.80966 2.52103,5.53228 1.3813,9.53344 -0.44228,1.55269 -2.44228,3.91374 -3.99572,4.71706 -1.7393,0.89942 -5.1024301,0.75475 -7.2584201,-0.31224 l -1.82769,-0.90451 -1.3821,0.66776 c -2.2897,1.10626 -7.69322,2.39665 -11.62583,2.7763 -2.03729,0.19668 -10.29229,0.51149 -18.34444,0.69959 -8.21337,0.19186 -16.88583,0.58297 -19.75556,0.89093 -6.08162,0.65264 -12.04695,1.92929 -14.32636,3.06602 -3.48681,1.73885 -3.19411,3.22808 1.06049,5.39565 l 2.76978,1.41111 11.33346,0.23793 c 9.20064,0.19316 12.62804,0.41012 18.21263,1.15291 16.293,2.16708 24.59712,2.89936 37.02485,3.26494 4.8744501,0.14339 7.8649201,0.37671 8.4024401,0.65558 1.47664004,0.7661 2.77885004,3.98922 1.84493004,4.56642 -0.19403,0.11991 -0.35278,0.52831 -0.35278,0.90755 0,0.37924 -0.13753,0.96518 -0.30562,1.30209 -0.16810004,0.33692 -1.00153004,2.11805 -1.85209004,3.95807 -1.83489,3.96948 -3.50429,5.92068 -6.63979,7.76063 -2.1174501,1.24255 -4.9498901,3.71071 -4.5839401,3.99442 0.56246,0.43606 4.2351901,1.69649 6.3921401,2.1937 7.85837004,1.81147 15.00177,3.93853 22.1587399,6.59809 6.68843,2.48546 21.12707,8.71785 26.9486,11.63229 2.69499,1.34919 6.18749,2.92938 7.76111,3.51152 3.92882,1.45342 17.8892,5.45514 20.68482,5.92928 6.22758,1.0562 12.81648,1.1786 21.51103,0.39962 z m -20.1015,-29.31937 c -13.42723,-1.11845 -23.36123,-3.33692 -28.2454,-6.30778 -2.81614,-1.71296 -6.85508,-5.19161 -7.95157,-6.84851 -0.99065,-1.49698 -1.03711,-3.16755 -0.0931,-3.34641 0.39942,-0.0757 0.87675,0.47691 1.52109,1.76087 1.69746,3.38252 6.98143,7.16765 12.60375,9.02861 10.45858,3.46172 29.19876,5.13595 40.24154,3.59515 8.4314,-1.17643 21.218483,-6.29864 29.596253,-11.85559 3.47945,-2.3079 9.28883,-7.60717 11.32056,-10.32651 0.98131,-1.31343 2.03056,-1.32424 2.03056,-0.0209 0,1.26975 -8.41662,9.3417 -12.64557,12.12773 -8.3813,5.5216 -20.945773,10.56822 -29.511383,11.8535 -3.42109,0.51334 -14.40812,0.71126 -18.86677,0.33986 z m 193.386223,3.43914 c 0.71804,-1.20929 2.03912,-3.67748 2.93574,-5.48487 0.89662,-1.8074 2.63437,-4.83354 3.86165,-6.72476 8.28114,-12.76122 11.57393,-22.29764 11.52592,-33.38074 -0.0477,-11.00421 -3.32119,-21.12375 -9.54465,-29.50571 -2.85799,-3.8492 -4.78561,-5.72876 -7.43165,-7.24624 -1.56902,-0.89983 -1.70032,-0.91377 -8.29702,-0.88069 -7.33027,0.0367 -19.66366,0.99289 -30.37021,2.35443 -10.82242,1.37629 -20.70034,3.1024 -42.30201,7.39204 -11.05958,2.1962 -23.00552,4.52029 -26.54653,5.16463 l -6.43819,1.17154 -0.0275,2.66111 c -0.0862,8.34713 0.0254,18.01788 0.22203,19.24167 0.12468,0.77611 0.7591,3.71299 1.40983,6.52639 0.65072,2.8134 1.42417,6.6234 1.71875,8.46667 0.2946,1.84326 1.16682,5.65326 1.9383,8.46666 1.65319,6.02889 2.04318,8.27168 2.36011,13.57275 l 0.23584,3.9447 4.05581,-0.98936 c 5.98461,-1.45987 9.64549,-1.71144 24.90125,-1.71122 29.62699,3.6e-4 50.91537,2.33643 68.84248,7.55413 2.91042,0.84708 5.37105,1.55486 5.46806,1.57285 0.097,0.018 0.76387,-0.9567 1.48195,-2.16598 z m -278.765273,-7.31759 c 0.87312,-0.80964 2.61937,-2.07768 3.88055,-2.81786 1.2611801,-0.74018 2.6334801,-1.71783 3.0495501,-2.17257 1.24459,-1.36025 4.09257,-7.34709 3.57266,-7.51023 -0.24673,-0.0774 -1.02781,-0.23667 -1.73573,-0.3539 -2.7081,-0.44846 -3.97369,-2.70306 -2.61012,-4.64983 0.51064,-0.72904 0.49145,-0.73251 -5.3798601,-0.97293 -11.76001,-0.48156 -19.13676,-1.15823 -34.9965,-3.21026 -3.8288,-0.49539 -9.61667,-0.96868 -13.05277,-1.06736 l -6.17361,-0.1773 5.29166,1.41452 c 13.95951,3.73152 19.03454,6.12357 33.16111,15.63002 9.27265,6.24002 12.48534,8.12686 13.04421,7.66099 0.19874,-0.16567 1.07572,-0.96365 1.94885,-1.77329 z m -10.93611,-0.81842 c 0,-0.0641 -2.97657,-2.11613 -6.61459,-4.56014 -13.20547,-8.8714 -19.2805,-11.47955 -35.89513,-15.41061 -4.26861,-1.00997 -8.8987,-2.1868 -10.28908,-2.61519 l -2.52796,-0.7789 -0.16436,1.24552 c -0.0904,0.68504 -0.37115,2.2445 -0.62391,3.46548 -0.44997,2.1736 -0.44163,2.23708 0.39926,3.03953 1.22956,1.17336 7.42322,4.96342 10.7366,6.57002 5.83368,2.82863 14.20921,4.94665 22.225,5.6203 9.89391,0.83149 12.16314,1.14303 16.75694,2.30055 4.43225,1.1168 5.99723,1.40996 5.99723,1.12344 z m 22.7729701,-14.25641 c 0.74142,-1.01395 -0.38126,-2.56045 -1.85876,-2.56045 -1.22559,0 -2.72053,1.13166 -2.47577,1.87414 0.4008,1.21579 3.57936,1.71907 4.33453,0.68631 z m -4.39251,-25.58385 c 1.19247,-0.79425 2.17588,-2.37754 2.62652,-4.22868 0.2291,-0.94111 0.1921,-0.97014 -1.23638,-0.97014 -2.44123,0 -4.22526,-1.37284 -4.24054,-3.26319 -0.008,-0.93894 -0.0698,-0.97014 -1.9343801,-0.97014 -1.53729,0 -2.08024,0.16037 -2.6873,0.79375 -1.79518,1.873 -2.24308,4.89686 -1.022,6.89968 1.46221,2.39831 6.0835401,3.34429 8.4940801,1.73872 z m 1.02231,-11.53187 c 0,-0.18471 -0.71506,-0.8278 -1.58902,-1.4291 -1.3347,-0.9183 -2.11104,-1.15003 -4.8506901,-1.44789 -1.79392,-0.19504 -5.3131,-0.82105 -7.82039,-1.39112 -2.50729,-0.57008 -4.6133,-0.98192 -4.68001,-0.9152 -0.0667,0.0667 1.11157,0.47443 2.61843,0.90603 8.47912,2.42865 10.14702,3.03662 10.49631,3.82605 0.31712,0.71673 0.59295,0.78706 3.0868001,0.78706 1.50622,0 2.73857,-0.15112 2.73857,-0.33583 z m 33.4354599,-8.92459 c -0.14745,-3.89501 -0.31119,-4.76856 -1.65901,-8.85104 -1.82888,-5.53963 -4.88012,-11.72676 -7.85187,-15.921613 C 13.682337,93.311378 5.1386071,85.446167 -2.4926429,80.701482 -13.563453,73.818284 -27.512093,68.60976 -41.597723,66.099366 c -6.0138,-1.071803 -18.78082,-1.155573 -24.1484,-0.158454 -3.43753,0.638581 -5.1123,1.284362 -3.33375,1.285473 1.4229,0.0011 12.63314,1.987306 15.85736,2.809871 4.46419,1.138911 13.82209,4.34612 18.7574,6.428676 5.81672,2.454479 21.1891,10.109601 27.1037001,13.497065 8.9618,5.132683 13.58121,8.430972 18.0219199,12.867763 3.42962,3.4266 4.3192,4.54973 5.52929,6.98099 2.17196,4.36381 2.69788,7.26752 2.45604,13.56018 l -0.20008,5.20599 2.17767,0.12454 c 1.19771,0.0685 3.34776,0.15513 4.77789,0.19252 l 2.60022,0.068 z"
       id="path826"
       inkscape:connector-curvature="0" />
  </g>
</svg>
