<?xml version="1.0" encoding="UTF-8" standalone="no"?>
<!-- Created with Inkscape (http://www.inkscape.org/) -->

<svg
   xmlns:dc="http://purl.org/dc/elements/1.1/"
   xmlns:cc="http://creativecommons.org/ns#"
   xmlns:rdf="http://www.w3.org/1999/02/22-rdf-syntax-ns#"
   xmlns:svg="http://www.w3.org/2000/svg"
   xmlns="http://www.w3.org/2000/svg"
   xmlns:sodipodi="http://sodipodi.sourceforge.net/DTD/sodipodi-0.dtd"
   xmlns:inkscape="http://www.inkscape.org/namespaces/inkscape"
   width="626.63831"
   height="411.87183"
   viewBox="0 0 587.4734 386.12983"
   id="svg2"
   version="1.1"
   inkscape:version="0.92.3 (2405546, 2018-03-11)"
   sodipodi:docname="shrimp_original_2pxstroke_plain1.svg">
  <defs
     id="defs4" />
  <sodipodi:namedview
     id="base"
     pagecolor="#ffffff"
     bordercolor="#666666"
     borderopacity="1.0"
     inkscape:pageopacity="0.0"
     inkscape:pageshadow="2"
     inkscape:zoom="1.4"
     inkscape:cx="203.40695"
     inkscape:cy="199.84898"
     inkscape:document-units="px"
     inkscape:current-layer="layer6"
     showgrid="false"
     showborder="false"
     inkscape:window-width="1920"
     inkscape:window-height="1009"
     inkscape:window-x="0"
     inkscape:window-y="0"
     inkscape:window-maximized="1"
     fit-margin-top="0"
     fit-margin-left="0"
     fit-margin-right="0"
     fit-margin-bottom="0"
     units="px" />
  <metadata
     id="metadata7">
    <rdf:RDF>
      <cc:Work
         rdf:about="">
        <dc:format>image/svg+xml</dc:format>
        <dc:type
           rdf:resource="http://purl.org/dc/dcmitype/StillImage" />
        <dc:title></dc:title>
      </cc:Work>
    </rdf:RDF>
  </metadata>
  <g
     inkscape:label="Outline"
     inkscape:groupmode="layer"
     id="layer1"
     style="display:inline"
     transform="translate(575.70332,-111.11301)">
    <path
       style="fill:none;fill-rule:evenodd;stroke:#000000;stroke-width:1.875;stroke-linecap:round;stroke-linejoin:miter;stroke-miterlimit:4;stroke-dasharray:none;stroke-opacity:1"
       d="m -364.01785,415.57649 c 33.44274,2.18178 66.59373,6.6795 99.55606,12.67489 25.08271,6.19659 49.7182,14.31639 74.72966,20.89654 -0.83014,-8.12462 -14.69175,-7.38592 -20.92271,-11.83719 -20.12874,-8.05844 -40.0193,-16.90373 -61.67814,-19.90741 -23.66459,-4.49051 -47.08182,-11.3099 -70.90292,-14.32683 -5.65404,1.8081 -25.32223,-4.43311 -17.94814,4.85795 1.49735,6.33355 -4.89615,12.11884 2.44867,20.67217 6.68323,5.26333 17.90138,7.19368 17.31623,17.69282 -0.40082,11.63145 12.03345,14.5256 19.44219,20.8408 26.45416,8.14864 54.55845,12.10519 81.8343,17.73107 16.77898,3.53016 33.54537,7.22138 50.77438,4.99068 5.53455,-1.88165 26.02716,3.26974 17.62589,-5.1643 -9.26155,-11.43118 -8.12975,-28.53292 -19.06118,-38.76405 5.96615,-10.0043 12.82663,-19.11923 23.44419,-24.49792 14.16583,-10.55369 32.53008,-18.48692 38.09314,-36.70259 0.67804,-1.38554 1.35607,-2.77109 2.0341,-4.15663"
       id="path4203"
       inkscape:connector-curvature="0" />
    <path
       style="fill:none;fill-rule:evenodd;stroke:#000000;stroke-width:1.875;stroke-linecap:butt;stroke-linejoin:miter;stroke-miterlimit:4;stroke-dasharray:none;stroke-opacity:1"
       d="m -168.30356,488.43363 c -1.86429,12.2615 11.59652,4.36513 18.57143,5 16.6232,-7.24482 34.75015,-11.07618 50.357136,-20.35714 17.837087,-12.29674 34.924156,-26.01067 47.405391,-43.90183 16.309734,-18.10422 31.5484,-37.51301 42.5946092,-59.31246 -11.5093962,-11.6281 13.5205408,1.9463 10.7458293,-10.1577 0.5847236,-2.92363 1.1694471,-5.84725 1.7541707,-8.77087"
       id="path4205"
       inkscape:connector-curvature="0" />
    <path
       style="fill:none;fill-rule:evenodd;stroke:#000000;stroke-width:1.875;stroke-linecap:round;stroke-linejoin:miter;stroke-miterlimit:4;stroke-dasharray:none;stroke-opacity:1"
       d="m -13.303564,363.79077 c -19.659902,-1.29194 -38.378918,6.17954 -57.847598,7.92705 -15.606099,-1.5363 -28.989268,-12.98482 -44.248628,-15.52508 -6.22389,0.76377 -21.53395,4.30969 -19.12965,9.94359 4.73704,3.3257 4.66298,9.56613 6.94016,14.44016"
       id="path4207"
       inkscape:connector-curvature="0" />
    <path
       style="fill:none;fill-rule:evenodd;stroke:#000000;stroke-width:3;stroke-linecap:butt;stroke-linejoin:miter;stroke-miterlimit:4;stroke-dasharray:none;stroke-opacity:1"
       d="m -127.76785,381.38006 0.0893,-1.25"
       id="path4209"
       inkscape:connector-curvature="0" />
    <path
       style="fill:none;fill-rule:evenodd;stroke:#000000;stroke-width:1.875;stroke-linecap:round;stroke-linejoin:round;stroke-miterlimit:4;stroke-dasharray:none;stroke-opacity:1"
       d="M 3.0727262,351.08084 C 4.8288813,333.97326 8.6014054,316.93877 9.9945556,299.92128 7.9393455,283.48175 9.0781928,264.96426 -3.1845279,252.15762 -16.209278,235.04363 -28.345656,216.6269 -44.573466,202.47297 c -18.397946,-8.6632 -36.262981,-18.8125 -56.626124,-21.99549 -16.39233,-4.93078 -33.13608,-7.66645 -50.28452,-6.92693 -21.35027,0.31799 -43.551,-3.54804 -64.3028,1.5595 -11.15239,8.40517 -25.64618,3.45312 -38.56539,4.73276 -29.35035,-0.15464 -58.68876,-0.54941 -87.87984,-3.90918 -5.78118,6.82827 -16.25453,-0.4565 -24.08791,0.19921 -10.59237,-5.88374 -12.61526,5.41608 -21.87075,4.0865 -29.87468,-1.12241 -59.87648,1.46758 -88.32705,11.07144 -18.18087,0.95476 -36.32726,0.0983 -54.46429,-1.25 10.36977,5.32187 21.98495,8.72859 30.53572,16.96428 -2.88207,8.86864 -15.3081,6.23413 -22.59422,9.79465 -12.71946,10.16967 -38.02275,2.22538 -43.90182,19.81936 -3.77086,26.62878 25.72627,33.74622 45.43097,25.30379 22.18675,2.65955 45.35786,0.36955 66.28352,9.37015 13.03297,4.31361 26.23017,9.17742 40.06584,8.58474 27.36348,7.34598 54.27914,17.27054 83.0654,17.14424 43.19333,3.23058 86.83093,11.87389 130.09021,6.57978 9.88982,-5.25064 20.7111,-3.1479 29.98916,2.43252 14.82212,5.64198 25.97365,17.76134 37.28286,28.37178 3.62989,7.18825 13.82045,14.37649 4.76584,21.56473 -1.84269,2.85618 -3.68539,5.71235 -5.52808,8.56853"
       id="path4211"
       inkscape:connector-curvature="0" />
  </g>
  <g
     inkscape:groupmode="layer"
     id="layer2"
     inkscape:label="more lines"
     style="display:inline"
     transform="translate(575.70332,-111.11301)">
    <path
       style="fill:none;fill-rule:evenodd;stroke:#000000;stroke-width:1.875;stroke-linecap:butt;stroke-linejoin:miter;stroke-miterlimit:4;stroke-dasharray:none;stroke-opacity:1"
       d="m -192.23213,172.71934 c 4.70454,29.15055 2.8143,58.69572 4.74006,88.07052 -1.69908,14.59384 -8.95622,28.06224 -12.5913,42.31957"
       id="path4233"
       inkscape:connector-curvature="0" />
    <path
       style="fill:none;fill-rule:evenodd;stroke:#000000;stroke-width:1.875;stroke-linecap:butt;stroke-linejoin:miter;stroke-miterlimit:4;stroke-dasharray:none;stroke-opacity:1"
       d="m -148.83928,320.93363 c 26.98178,-16.35893 56.471495,-29.99838 78.877534,-52.58541 8.765714,-9.6709 15.844683,-20.32531 19.565088,-32.93801 3.97609,-9.76119 7.803739,-19.56804 9.727984,-29.96991"
       id="path4235"
       inkscape:connector-curvature="0" />
    <path
       style="fill:none;fill-rule:evenodd;stroke:#000000;stroke-width:1.875;stroke-linecap:butt;stroke-linejoin:miter;stroke-miterlimit:4;stroke-dasharray:none;stroke-opacity:1"
       d="m -133.72898,335.74998 c 16.37767,2.34829 33.00609,1.59542 48.984741,-2.40162 16.835609,-7.34042 32.050092,-17.26788 46.100548,-29.05292 12.488483,-9.05148 17.624837,-24.84915 27.032754,-36.78818 3.5486659,-5.15371 7.0126432,-10.0779 8.1916332,-16.35755"
       id="path4237"
       inkscape:connector-curvature="0" />
    <path
       style="fill:none;fill-rule:evenodd;stroke:#000000;stroke-width:1.875;stroke-linecap:butt;stroke-linejoin:miter;stroke-miterlimit:4;stroke-dasharray:none;stroke-opacity:1"
       d="m -169.08432,307.46571 c 17.72119,-26.53002 37.80298,-51.5345 55.71685,-77.81407 6.21197,-15.59986 16.526575,-30.83518 18.024286,-47.69738"
       id="path4239"
       inkscape:connector-curvature="0" />
  </g>
  <g
     inkscape:groupmode="layer"
     id="layer7"
     inkscape:label="Antenna"
     style="display:inline"
     transform="translate(575.70332,-111.11301)">
    <path
       style="fill:none;fill-rule:evenodd;stroke:#000000;stroke-width:1.89611399;stroke-linecap:butt;stroke-linejoin:miter;stroke-miterlimit:4;stroke-dasharray:none;stroke-opacity:1"
       d="m -455.46274,184.91071 c -10.78986,-13.76293 -21.84681,-36.03293 -35.11167,-51.48835 -18.22803,-20.52349 -48.7096,-20.36367 -74.03862,-20.69255 -15.77785,2.36534 -8.82104,12.18315 2.89139,11.54894"
       id="path4354"
       inkscape:connector-curvature="0" />
    <path
       style="fill:none;fill-rule:evenodd;stroke:#000000;stroke-width:1.875;stroke-linecap:butt;stroke-linejoin:miter;stroke-miterlimit:4;stroke-dasharray:none;stroke-opacity:1"
       d="m -466.87499,188.43363 c -13.99647,-25.75858 -30.49547,-57.52457 -63.43768,-60.23605 -10.64596,-2.10022 -21.44981,-3.3773 -32.27661,-4.04966"
       id="path4356"
       inkscape:connector-curvature="0" />
  </g>
  <g
     inkscape:groupmode="layer"
     id="layer3"
     inkscape:label="Pattes"
     style="display:inline"
     transform="translate(575.70332,-111.11301)">
    <path
       style="fill:none;fill-rule:evenodd;stroke:#000000;stroke-width:1.875;stroke-linecap:butt;stroke-linejoin:miter;stroke-miterlimit:4;stroke-dasharray:none;stroke-opacity:1"
       d="m -176.913,303.67764 c -2.21975,12.85458 -5.84787,25.8355 -13.71204,36.45839 -5.30469,9.1308 -15.36435,13.63974 -22.65345,20.86777 -22.51912,2.70714 -45.9423,7.41839 -68.1853,0.50507 14.42933,-3.86846 29.6919,2.3808 43.96884,-2.56728 19.1982,-2.68838 36.77438,-15.24593 45.5368,-32.51115 3.71168,-8.01602 5.448,-16.78915 9.23678,-24.7731"
       id="path4242"
       inkscape:connector-curvature="0" />
    <path
       style="fill:none;fill-rule:evenodd;stroke:#000000;stroke-width:1.875;stroke-linecap:butt;stroke-linejoin:miter;stroke-miterlimit:4;stroke-dasharray:none;stroke-opacity:1"
       d="m -168.30356,307.71934 c -0.33562,14.84221 -3.89132,30.51138 -13.84243,41.95221 -4.74943,5.07115 -10.56924,8.95506 -15.61571,13.70334 -12.15695,5.56944 -23.58562,15.61508 -37.80578,14.1876 -5.51295,0.56839 -11.25115,1.48618 -16.69747,0.1236 -0.74169,-4.13338 7.44822,-4.80152 10.85789,-6.01527 11.44461,-2.58709 24.66319,-2.83257 33.39615,-11.78266 8.37139,-8.80331 21.82568,-13.44427 25.88211,-25.84922 1.86659,-5.71534 4.70999,-11.17395 5.76388,-17.18763 0.91299,-3.96973 1.60439,-7.98535 2.34707,-11.98911"
       id="path4244"
       inkscape:connector-curvature="0" />
    <path
       style="fill:none;fill-rule:evenodd;stroke:#000000;stroke-width:1.875;stroke-linecap:butt;stroke-linejoin:miter;stroke-miterlimit:4;stroke-dasharray:none;stroke-opacity:1"
       d="m -160.44642,312.00506 c -1.41813,16.85105 -4.16356,35.06936 -16.17894,47.93073 -12.39183,13.61116 -28.67874,23.03396 -45.58422,29.92641 -3.94284,2.4775 -13.15118,-1.62715 -6.34245,-5.34269 5.84548,-1.0297 11.86774,-1.68546 16.36877,-6.28729 6.33254,-5.36224 12.24005,-11.21935 18.82277,-16.27542 7.68662,-6.70237 16.64189,-12.65738 21.41856,-21.97396 2.40326,-10.15926 4.80653,-20.31852 7.2098,-30.47778"
       id="path4250"
       inkscape:connector-curvature="0" />
    <path
       style="fill:none;fill-rule:evenodd;stroke:#000000;stroke-width:1.875;stroke-linecap:butt;stroke-linejoin:miter;stroke-miterlimit:4;stroke-dasharray:none;stroke-opacity:1"
       d="m -151.87499,318.07649 c -1.3124,11.39136 0.28537,24.42473 -7.78327,33.7517 -5.27489,12.52919 -13.42673,24.81908 -26.02562,30.88208 -9.51243,6.95659 -21.22718,10.72788 -32.97682,11.0805 -1.09592,-6.05383 6.13262,-7.97941 10.52675,-9.45633 6.66706,-2.18048 12.56016,-6.15378 18.30124,-10.10326 7.16576,-5.34708 13.43227,-11.75368 20.02329,-17.76527 5.72198,-10.95486 12.79096,-22.29761 11.87469,-35.17486 0.2342,-2.38104 0.4684,-4.76209 0.7026,-7.14313"
       id="path4252"
       inkscape:connector-curvature="0" />
    <path
       style="fill:none;fill-rule:evenodd;stroke:#000000;stroke-width:2;stroke-linecap:butt;stroke-linejoin:miter;stroke-miterlimit:4;stroke-dasharray:none;stroke-opacity:1"
       d="m -145.08928,325.21935 c 0.58156,14.8486 0.3864,30.84027 -10.03637,42.58406 -3.67059,8.72106 -10.68262,13.7034 -19.3877,16.79142 -9.54383,5.37654 -19.44788,9.53473 -30.57593,9.55309 1.42857,-1.42857 2.85715,-2.85715 4.28572,-4.28572"
       id="path4254"
       inkscape:connector-curvature="0" />
  </g>
  <g
     inkscape:groupmode="layer"
     id="layer4"
     inkscape:label="Details"
     style="display:inline"
     transform="translate(575.70332,-111.11301)">
    <path
       style="fill:none;fill-rule:evenodd;stroke:#000000;stroke-width:1.875;stroke-linecap:butt;stroke-linejoin:miter;stroke-miterlimit:4;stroke-dasharray:none;stroke-opacity:1"
       d="m -368.30356,239.8622 c 40.76337,18.19922 89.19332,20.82223 130.71428,3.57143"
       id="path4347"
       inkscape:connector-curvature="0" />
  </g>
  <g
     inkscape:groupmode="layer"
     id="layer5"
     inkscape:label="Oil"
     style="display:inline"
     transform="translate(575.70332,-111.11301)">
    <path
       style="opacity:1;fill:none;fill-opacity:1;stroke:#000000;stroke-width:1.875;stroke-linecap:round;stroke-linejoin:miter;stroke-miterlimit:4;stroke-dasharray:none;stroke-dashoffset:0;stroke-opacity:1"
       d="m -474.15396,202.8662 c -0.16949,12.97483 -23.49022,10.20693 -19.53928,-2.56557 3.23485,-9.19036 19.27254,-7.61362 19.53928,2.56557 z"
       id="path4266"
       inkscape:connector-curvature="0" />
    <path
       style="fill:none;fill-rule:evenodd;stroke:#000000;stroke-width:2;stroke-linecap:round;stroke-linejoin:round;stroke-miterlimit:4;stroke-dasharray:none;stroke-opacity:1"
       d="m -472.76785,201.64792 c -3.53894,-9.67653 -11.63635,-19.14518 -22.85714,-18.57143"
       id="path4349"
       inkscape:connector-curvature="0" />
  </g>
  <g
     inkscape:groupmode="layer"
     id="layer6"
     inkscape:label="Smile"
     style="display:inline"
     transform="translate(575.70332,-111.11301)">
    <path
       style="fill:none;fill-rule:evenodd;stroke:#000000;stroke-width:1px;stroke-linecap:butt;stroke-linejoin:miter;stroke-opacity:1"
       d="m -502.6872,211.62749 c 7.90034,-4.27865 17.74878,3.34447 24.22007,-2.42482 5.81816,-3.17186 5.86757,-13.3631 2.80151,-18.53585"
       id="path4297"
       inkscape:connector-curvature="0" />
    <path
       style="fill:none;fill-rule:evenodd;stroke:#000000;stroke-width:2;stroke-linecap:round;stroke-linejoin:miter;stroke-miterlimit:4;stroke-dasharray:none;stroke-opacity:1"
       d="m -560.44642,257.71934 c 39.39463,-9.54295 79.7077,-22.3929 120.621,-14.0447 4.15303,0.59851 8.29896,1.26104 12.41471,2.08042"
       id="path4303"
       inkscape:connector-curvature="0" />
    <path
       style="fill:none;fill-rule:evenodd;stroke:#000000;stroke-width:2;stroke-linecap:butt;stroke-linejoin:miter;stroke-miterlimit:4;stroke-dasharray:none;stroke-opacity:1"
       d="m -467.58928,241.02292 c 2.68288,6.61061 3.65582,24.63615 9.49856,10.15263 1.9231,-2.96755 3.8462,-5.93509 5.7693,-8.90263"
       id="path4305"
       inkscape:connector-curvature="0" />
  </g>
</svg>
