<?xml version="1.0" encoding="UTF-8"?>
<svg width="1850" height="1048" version="1.1" viewBox="0 0 489.5 277.4" xmlns="http://www.w3.org/2000/svg"><filter id="dropShadow" x="-40%" y="-40%" height="140%" width="140%">
  <feGaussianBlur stdDeviation="12" result="Blurred"/>
  <feMerge>
    <feMergeNode in="Blurred"/>
    <feMergeNode in="SourceGraphic"/>
  </feMerge>
</filter><g style="filter: url(#dropShadow)"><g transform="translate(85.28 -63.53)"><path d="m273.6 340.3c-9.475-1.458-21.25-4.135-35.63-8.1-5.411-1.492-33.9-8.336-44.26-10.63-3.581-0.7938-10.1-2.052-14.49-2.795-4.39-0.7436-8.326-1.567-8.746-1.829-0.4203-0.2625-0.7657-0.7962-0.7675-1.186-4e-3 -0.7861-1.491-3.427-3.237-5.749-0.9351-1.243-1.161-1.902-1.272-3.704-0.113-1.841 0.0468-2.643 0.9988-5.008 2.352-5.843 1.706-8.122-2.972-10.48-5.21-2.627-8.988-5.906-10.6-9.199-0.9182-1.877-0.9796-2.264-0.8378-5.287 0.1828-3.894 0.8138-5.34 3.375-7.736 3.004-2.81 5.868-3.933 11.53-4.52 6.735-0.6984 19.09 0.7855 29.36 3.527 5.266 1.405 9.499 3.017 18.99 7.23 11.21 4.978 13.01 5.702 24.45 9.858 5.681 2.064 13.54 4.627 17.46 5.694s8.891 2.487 11.04 3.155c3.698 1.148 4.208 1.216 9.349 1.257 2.991 0.024 6.945-0.1392 8.789-0.3624 1.843-0.2232 4.701-0.5507 6.35-0.7279 4.783-0.5139 6.264-0.9102 17.82-4.769 13.29-4.438 15.54-5.292 20.27-7.665l3.694-1.854 0.0534-2.117c0.0781-3.091-1.16-10.45-2.374-14.11-2.744-8.271-10.39-21.33-18.18-31.04-3.916-4.881-11.61-12.82-15.99-16.49-4.611-3.87-11.82-8.591-17.59-11.52-5.516-2.799-8.582-4.076-14.95-6.229l-4.498-1.52v2.83c0 6.718-4.095 20.8-8.884 30.54-5.236 10.65-11.65 17.62-22.02 23.93-9.278 5.644-18.92 9.524-23.02 9.26-1.567-0.1013-1.643-0.1553-1.643-1.165 0-0.9777 0.4623-1.367 6.069-5.115 3.338-2.231 7.543-5.248 9.344-6.703 6.128-4.951 15.35-14.8 20.3-21.7 4.285-5.962 8.228-13.98 10.82-21.98 1.178-3.644 2.33-9.007 2.33-10.85 0-0.8717-0.7029-1.205-4.057-1.923-0.9701-0.2076-2.042-0.4617-2.381-0.5647-0.4768-0.1446-0.6174 0.02-0.6174 0.7233 0 0.5008-0.1565 1.186-0.3477 1.523-0.4483 0.7896-3.087 8.277-4.753 13.49-3.222 10.08-8.093 17.84-16.39 26.12-5.056 5.047-10.19 8.7-16.25 11.57-6.294 2.981-16.1 5.833-19.34 5.625-1.497-0.0965-1.664-0.1959-1.762-1.046-0.1433-1.239 1.237-2.18 8.601-5.866 6.607-3.307 11.79-6.699 16.11-10.55 10.16-9.05 17.2-19.96 20.69-32.03 0.7189-2.49 2.597-11.51 2.424-11.64-0.0513-0.0393-1.601-0.2632-3.445-0.4974-1.843-0.2342-3.843-0.5085-4.445-0.6095l-1.093-0.1837-0.2322 2.222c-0.37 3.539-1.228 6.505-3.305 11.42-5.251 12.42-8.901 17.85-17.79 26.46-4.321 4.183-9.044 7.817-13.91 10.7-5.57 3.302-14.99 6.296-22.45 7.135-3.377 0.38-3.87 0.3631-4.668-0.1596-0.4907-0.3215-0.8921-0.8782-0.8921-1.237 0-1.043 2.732-3.278 6.716-5.493 13.45-7.479 20.16-12.21 27.01-19.04 5.271-5.258 9.089-10.48 12.13-16.6 2.402-4.828 5.034-11.95 5.495-14.87l0.2314-1.463-3.832-0.2158c-2.107-0.1187-4.824-0.2879-6.036-0.3761-1.781-0.1295-2.205-0.0603-2.205 0.3603 0 0.2864-0.1402 0.7963-0.3116 1.133s-0.6412 1.818-1.044 3.291c-1.838 6.722-6.97 17.01-11.43 22.9-6.547 8.658-16.06 17.45-23.79 21.98-4.933 2.892-8.646 4.147-9.791 3.31-1.398-1.023-0.4918-2.171 9.643-12.22 10.08-9.992 12.89-13.3 17.14-20.14 4.17-6.719 7.706-14.79 8.458-19.3l0.2501-1.499-8.409 6e-3c-4.625 4e-3 -9.918 0.1635-11.76 0.3559-3.788 0.3953-12.78 2.484-16.23 3.772-3.299 1.23-11.73 5.527-17.46 8.902-11.7 6.886-15.1 8.759-19.93 10.98-10.19 4.684-22.47 8.812-26.63 8.955-1.358 0.0465-4.533 0.208-7.056 0.3589-4.554 0.2725-11.31-0.1162-15.88-0.9136-2.711-0.4732-16.76-4.517-20.5-5.901-1.574-0.5821-5.066-2.162-7.761-3.512-5.822-2.914-20.26-9.147-26.95-11.63-7.433-2.762-16.6-5.473-21.87-6.471-2.305-0.436-7.678-2.524-11.29-4.386-1.067-0.5504-2.219-0.9599-2.56-0.91-0.7834 0.1147-5.223-0.769-10.58-2.106-3.994-0.9965-5.977-1.257-15.96-2.095-7.719-0.6479-15.93-2.677-21.79-5.382-3.314-1.531-11.77-6.816-12.44-7.776-0.6696-0.9559-0.6575-2.387 0.0529-6.27l0.5741-3.138-1.472-1.322c-2.085-1.873-2.287-3.381-0.6954-5.194 1.457-1.659 3.335-2.487 8.075-3.558 5.841-1.32 12.9-1.904 27.34-2.263 21.56-0.5357 22.5-0.6237 29.16-2.722l3.058-0.9632-0.5002-0.9673c-0.2751-0.532-0.5002-1.878-0.5002-2.99 0-2.442 0.9382-4.579 2.682-6.111 0.6727-0.5906 1.145-1.074 1.051-1.074-0.0949 0-2.601-0.7033-5.569-1.563-5.782-1.675-10.28-3.451-12.56-4.961-1.406-0.9308-2.174-2.447-1.553-3.068 0.1885-0.1885 2.233 0.2604 5.026 1.103 6.315 1.906 13.68 3.567 16.92 3.815 3.404 0.261 14.01 0.2139 21.76-0.0965 5.156-0.2066 6.095-0.3295 6.286-0.8232 0.1234-0.3192 0.3154-2.495 0.4268-4.834 0.6081-12.78-5.194-20.08-24.95-31.39-5.915-3.387-21.29-11.04-27.1-13.5-5.528-2.333-14.75-5.441-19.49-6.573-4.6-1.097-13.71-2.642-17.43-2.957-2.731-0.2308-2.826-0.269-2.932-1.187-0.161-1.394 0.8076-1.829 6.636-2.981 4.832-0.9543 5.613-1.01 14.11-0.9996 7.731 0.0091 9.614 0.1214 13.39 0.7984 14.16 2.539 28.02 7.712 39.06 14.58 7.708 4.794 17.18 13.54 21.92 20.25 2.972 4.202 6.022 10.39 7.855 15.93 1.386 4.19 1.51 4.877 1.656 9.167l0.1579 4.637 2.165 0.202c1.191 0.1111 4.388 0.2978 7.104 0.4148s7.325 0.4412 10.24 0.7203c2.916 0.2791 6.25 0.4908 7.408 0.4705 1.159-0.0203 6.222 0.2333 11.25 0.5636 7.14 0.4689 12.24 0.5622 23.28 0.4257 13.25-0.1639 14.65-0.2433 22.25-1.262 11.28-1.511 22.92-3.343 30.57-4.808 3.56-0.6819 10.28-1.95 14.94-2.818 4.657-0.8677 16.81-3.239 27.01-5.27 27.01-5.379 38.06-7.101 55.96-8.718 12.05-1.089 31.21-1.087 43.68 5e-3 18.38 1.608 37.35 5.126 50.62 9.39 9.591 3.081 22.71 8.855 29.37 12.93 6.555 4.006 9.593 6.423 15.43 12.28 8.794 8.814 11.48 13 15.01 23.4 3.345 9.843 6.375 23.29 7.567 33.59 1.037 8.959 0.7362 23.56-0.7197 34.92-2.277 17.78-7.626 33.75-15.83 47.26-6.773 11.15-18.11 23.98-28.76 32.57-9.053 7.293-18.12 12.16-32.07 17.21-11.3 4.09-17.92 5.886-27.4 7.434-7.537 1.23-19 1.458-25.22 0.5008zm24.52-2.271c9.445-1.53 16.08-3.329 27.4-7.427 16.19-5.862 25.03-10.96 36.79-21.2l3.153-2.747-3.916-1.704c-4.653-2.024-9.992-4.995-12.88-7.167-3.704-2.784-10.3-10.2-12.82-14.42l-1.139-1.905-4.027 1.914c-2.215 1.053-5.565 2.473-7.444 3.155-7.337 2.665-23.51 7.92-25.01 8.125-1.192 0.1634-2.151 0.6744-3.927 2.094-4.24 3.386-9.688 6.869-13.82 8.832-2.231 1.061-4.333 2.078-4.67 2.26-0.3369 0.1824-1.091 0.3316-1.676 0.3316-1.296 0-1.281-0.3318-0.3505 7.346 0.7473 6.168 2.576 14.45 4.279 19.38 0.5532 1.6 1.006 3.25 1.006 3.665 0 0.7523 0.0247 0.7544 6.791 0.5566 4.733-0.1383 8.448-0.467 12.26-1.084zm-21 0.0386c-0.1266-0.4366-0.5445-1.661-0.9287-2.72-0.9742-2.687-3.388-12.61-3.668-15.08l-0.2317-2.045-8.343-0.0363c-6.429-0.0279-9.718-0.2165-14.34-0.8221-10.24-1.342-16.37-3.191-38.63-11.66-6.26-2.383-15.96-5.729-19.91-6.867-4.73-1.364-14.39-3.093-18.28-3.272l-3.44-0.158v1.428c0 0.7855-0.4111 2.507-0.9135 3.825-1.436 3.768-1.679 4.807-1.432 6.125 0.193 1.029 2.54 4.757 4.194 6.662 0.2444 0.2815 0.5237 0.8981 0.6207 1.37 0.1702 0.8282 0.4572 0.906 8.114 2.199 4.366 0.7374 10.87 1.992 14.46 2.787 10.3 2.283 38.84 9.136 44.27 10.63 13.56 3.73 26.83 6.777 34.92 8.019 3.569 0.5473 3.785 0.5238 3.521-0.384zm-5.266-21.86c0.2315-0.2315-1.51-14.31-2.15-17.38-0.2829-1.358-0.5146-2.579-0.5147-2.713-3.5e-4 -0.3023-3.743-1.446-12.95-3.957-3.922-1.069-11.78-3.634-17.46-5.698-11.44-4.156-13.23-4.88-24.45-9.858-14.17-6.293-20.63-8.258-32.98-10.04-14.61-2.106-23.78-0.1375-26.91 5.773-0.6099 1.151-0.7668 2.056-0.773 4.455-7e-3 2.822 0.0697 3.139 1.227 5.06 1.43 2.374 4.359 4.746 8.591 6.958 2.579 1.348 5.52 3.82 5.52 4.639 0 0.2081 0.5511 0.2838 1.323 0.1817 2.813-0.372 15.01 1.586 21.45 3.446 3.964 1.143 13.68 4.495 19.91 6.87 24.85 9.47 31.42 11.27 45.16 12.35 3.728 0.2939 14.7 0.2324 15.01-0.0841zm3.249-10.13c0.3369-0.1824 2.438-1.2 4.67-2.26 4.164-1.98 10.91-6.223 12.17-7.65l0.7056-0.8015-1.235 0.248c-3.441 0.6911-10.93 1.296-15.07 1.217-2.564-0.0487-4.744-6e-3 -4.844 0.0939-0.1003 0.1003 0.0401 1.521 0.312 3.158 0.2719 1.637 0.5963 3.73 0.7208 4.651 0.2003 1.482 0.3265 1.676 1.092 1.676 0.4758 0 1.141-0.1492 1.478-0.3316zm96.75-6.371c15.12-16.86 23.61-34.13 27.99-56.97 1.474-7.683 2.688-20.31 2.693-28v-2.603l-1.022 0.839c-0.562 0.4614-2.11 1.764-3.44 2.895-1.33 1.131-5.183 3.889-8.562 6.13-13.75 9.117-24.5 14.58-46.42 23.58-2.716 1.115-6.166 2.64-7.665 3.388-1.499 0.7478-3.038 1.36-3.419 1.36-0.3809 0-0.7907 0.1588-0.9106 0.3528-0.1199 0.194-0.5092 0.3528-0.865 0.3528-1.168 0-1.086 1.052 0.2962 3.809 3.37 6.722 5.282 14 5.533 21.06 0.1248 3.502 0.246 4.093 1.243 6.061 1.466 2.893 4.998 7.322 8.953 11.22 3.704 3.656 8.251 6.538 15.13 9.591 2.353 1.044 4.517 2.036 4.808 2.206 0.6256 0.364 0.4298 0.5467 5.649-5.27zm-161.2-39.17c4.406-1.141 12.12-4.734 18.49-8.609 10.14-6.168 15.77-12.31 20.96-22.87 4.856-9.88 9.06-24.46 8.813-30.56l-0.1054-2.605-2.999-0.8831v0.9749c0 5.575-4.296 18.14-9.047 26.45-4.106 7.188-9.42 13.86-17.41 21.87-5.729 5.741-9.799 9.079-16.59 13.6-2.807 1.87-4.786 3.317-4.398 3.215 0.3881-0.1021 1.418-0.3701 2.288-0.5955zm-11.99-12.18c10.66-3.205 18.58-7.779 25.6-14.78 7.744-7.723 12.71-15.73 15.87-25.59 0.7146-2.231 2.154-6.447 3.199-9.367 1.688-4.717 2.11-6.152 1.812-6.156-0.0485-7e-4 -1.672-0.3085-3.608-0.6841-1.936-0.3756-3.546-0.6529-3.577-0.6162-0.0318 0.0367-0.4782 2.21-0.9922 4.829-1.518 7.736-2.974 12.21-5.914 18.17-4.89 9.912-14.27 20.55-24.04 27.27-1.779 1.224-6.053 3.649-9.496 5.39-3.444 1.741-6.262 3.226-6.262 3.3 0 0.2083 4.072-0.7619 7.408-1.765zm130.8 0.9047c0.8032-0.3881 1.71-0.7056 2.014-0.7056 0.3047 0 1.781-0.6118 3.28-1.36 1.499-0.7478 4.949-2.272 7.665-3.388 21.28-8.738 32.21-14.24 45.33-22.83 5.906-3.866 9.017-6.176 12.42-9.223l2.423-2.169-0.2127-2.474c-1.223-14.22-3.877-27.23-8.078-39.59-3.474-10.22-6.269-14.63-14.49-22.87-5.289-5.303-8.518-7.849-14.9-11.75-2.874-1.756-11.22-5.979-14.33-7.252-1.241-0.5083-1.341-0.508-1.144 4e-3 1.102 2.872 1.141 17.98 0.0661 25.66-2.299 16.44-6.958 31.11-13.94 43.9-5.268 9.647-8.794 14.74-13.14 19-2.686 2.63-9.111 7.717-11.61 9.194-0.5652 0.3339-1.024 0.7713-1.02 0.972 5e-3 0.2007 1.055 1.556 2.335 3.011 5.07 5.766 10.66 13.56 14.26 19.88 0.8428 1.481 1.55 2.693 1.572 2.693 0.0219 0 0.6971-0.3175 1.5-0.7056zm-157.8-3.928c3.636-0.587 9.801-2.344 13.44-3.83 10.33-4.22 22.42-14.36 29.21-24.52 3.286-4.914 8.682-16.61 9.847-21.34 0.7697-3.128 1.09-5.867 0.7142-6.099-0.1714-0.1059-1.99-0.305-4.042-0.4425l-3.731-0.2499-0.2304 1.681c-0.4074 2.972-3 10.09-5.526 15.16-2.872 5.774-6.471 10.8-11.45 15.99-7.216 7.518-14.6 12.84-28.68 20.68-1.994 1.109-4.058 2.404-4.586 2.878l-0.9603 0.8603 1.94-0.2092c1.067-0.115 2.893-0.363 4.057-0.5509zm-6.548-8.881c7.859-4.428 17.04-12.76 23.58-21.41 2.786-3.684 6.382-9.94 8.272-14.39 2.097-4.94 3.804-9.909 3.804-11.08 0-0.4662 0.1965-1.044 0.4366-1.284 0.347-0.3469-0.32-0.4158-3.248-0.3351l-3.685 0.1015-0.4427 2.191c-1.444 7.145-6.405 16.99-13.11 26.02-1.757 2.364-5.839 6.726-12.28 13.12-5.307 5.268-9.649 9.671-9.649 9.784 0 0.3643 3.62-1.188 6.328-2.714zm146.1-15.64c9.021-6.127 13.12-10.38 18.39-19.08 8.93-14.75 13.85-27.61 16.97-44.38 1.435-7.713 1.781-11.61 1.786-20.11 4e-3 -6.699-0.107-8.55-0.636-10.61l-0.6406-2.498-4.827-1.797c-11.95-4.448-25.18-7.595-42.58-10.13-6.492-0.9447-21.25-2.224-27.56-2.389l-3.936-0.1032 2.152 1.945c2.758 2.493 7.186 8.451 9.015 12.13 2.069 4.163 3.877 9.691 4.686 14.33 1.338 7.675 0.8691 17.28-1.172 23.99-1.631 5.358-5.284 12.73-9.61 19.4-1.21 1.865-3.097 5.175-4.193 7.355-1.096 2.18-2.391 4.551-2.879 5.268s-0.8858 1.413-0.8858 1.546c0 0.1334 0.8334 0.515 1.852 0.8481 13.62 4.454 27.67 13.12 37.65 23.23 1.645 1.666 3.107 3.029 3.25 3.029s1.575-0.8936 3.183-1.986zm-219.9-1.862c4.145-0.3714 10.24-2.17 18.77-5.537 8.937-3.529 12.4-5.316 27.27-14.06 5.967-3.512 15.1-8.141 18.48-9.369l2.253-0.8179-0.2365-3.731c-0.3286-5.184-0.7424-7.541-2.359-13.43-0.7718-2.813-1.644-6.623-1.939-8.467-0.2946-1.843-1.091-5.727-1.769-8.631-1.574-6.735-1.835-9.74-1.743-20.03 0.0436-4.847-0.0597-8.378-0.2452-8.378-0.1764 0-2.889 0.4816-6.029 1.07-7.178 1.346-19.18 3.215-29.7 4.624-7.609 1.02-9.004 1.099-22.4 1.268-13.91 0.1758-27.25-0.26-40.57-1.325-17.56-1.404-37.57-1.907-50.5-1.269l-5.876 0.29 1.36 1.796c2.127 2.81 2.521 5.532 1.381 9.533-0.4423 1.553-2.442 3.914-3.996 4.717-1.739 0.8994-5.102 0.7548-7.258-0.3122l-1.828-0.9045-1.382 0.6678c-2.29 1.106-7.693 2.397-11.63 2.776-2.037 0.1967-10.29 0.5115-18.34 0.6996-8.213 0.1919-16.89 0.583-19.76 0.8909-6.082 0.6526-12.05 1.929-14.33 3.066-3.487 1.739-3.194 3.228 1.06 5.396l2.77 1.411 11.33 0.2379c9.201 0.1932 12.63 0.4101 18.21 1.153 16.29 2.167 24.6 2.899 37.02 3.265 4.874 0.1434 7.865 0.3767 8.402 0.6556 1.477 0.7661 2.779 3.989 1.845 4.566-0.194 0.1199-0.3528 0.5283-0.3528 0.9076s-0.1375 0.9652-0.3056 1.302c-0.1681 0.3369-1.002 2.118-1.852 3.958-1.835 3.969-3.504 5.921-6.64 7.761-2.117 1.243-4.95 3.711-4.584 3.994 0.5625 0.4361 4.235 1.696 6.392 2.194 7.858 1.811 15 3.939 22.16 6.598 6.688 2.485 21.13 8.718 26.95 11.63 2.695 1.349 6.187 2.929 7.761 3.512 3.929 1.453 17.89 5.455 20.68 5.929 6.228 1.056 12.82 1.179 21.51 0.3996zm-20.1-29.32c-13.43-1.118-23.36-3.337-28.25-6.308-2.816-1.713-6.855-5.192-7.952-6.849-0.9906-1.497-1.037-3.168-0.0931-3.346 0.3994-0.0757 0.8768 0.4769 1.521 1.761 1.697 3.383 6.981 7.168 12.6 9.029 10.46 3.462 29.2 5.136 40.24 3.595 8.431-1.176 21.22-6.299 29.6-11.86 3.479-2.308 9.289-7.607 11.32-10.33 0.9813-1.313 2.031-1.324 2.031-0.0209 0 1.27-8.417 9.342-12.65 12.13-8.381 5.522-20.95 10.57-29.51 11.85-3.421 0.5133-14.41 0.7113-18.87 0.3399zm193.4 3.439c0.718-1.209 2.039-3.677 2.936-5.485 0.8966-1.807 2.634-4.834 3.862-6.725 8.281-12.76 11.57-22.3 11.53-33.38-0.0477-11-3.321-21.12-9.545-29.51-2.858-3.849-4.786-5.729-7.432-7.246-1.569-0.8998-1.7-0.9138-8.297-0.8807-7.33 0.0367-19.66 0.9929-30.37 2.354-10.82 1.376-20.7 3.102-42.3 7.392-11.06 2.196-23.01 4.52-26.55 5.165l-6.438 1.172-0.0275 2.661c-0.0862 8.347 0.0254 18.02 0.222 19.24 0.1247 0.7761 0.7591 3.713 1.41 6.526 0.6507 2.813 1.424 6.623 1.719 8.467 0.2946 1.843 1.167 5.653 1.938 8.467 1.653 6.029 2.043 8.272 2.36 13.57l0.2358 3.945 4.056-0.9894c5.985-1.46 9.645-1.711 24.9-1.711 29.63 3.6e-4 50.92 2.336 68.84 7.554 2.91 0.8471 5.371 1.555 5.468 1.573 0.097 0.018 0.7639-0.9567 1.482-2.166zm-278.8-7.318c0.8731-0.8096 2.619-2.078 3.881-2.818 1.261-0.7402 2.633-1.718 3.05-2.173 1.245-1.36 4.093-7.347 3.573-7.51-0.2467-0.0774-1.028-0.2367-1.736-0.3539-2.708-0.4485-3.974-2.703-2.61-4.65 0.5106-0.729 0.4914-0.7325-5.38-0.9729-11.76-0.4816-19.14-1.158-35-3.21-3.829-0.4954-9.617-0.9687-13.05-1.067l-6.174-0.1773 5.292 1.415c13.96 3.732 19.03 6.124 33.16 15.63 9.273 6.24 12.49 8.127 13.04 7.661 0.1987-0.1657 1.076-0.9636 1.949-1.773zm-10.94-0.8184c0-0.0641-2.977-2.116-6.615-4.56-13.21-8.871-19.28-11.48-35.9-15.41-4.269-1.01-8.899-2.187-10.29-2.615l-2.528-0.7789-0.1644 1.246c-0.0904 0.685-0.3712 2.244-0.6239 3.465-0.45 2.174-0.4416 2.237 0.3993 3.04 1.23 1.173 7.423 4.963 10.74 6.57 5.834 2.829 14.21 4.947 22.22 5.62 9.894 0.8315 12.16 1.143 16.76 2.301 4.432 1.117 5.997 1.41 5.997 1.123zm22.77-14.26c0.7414-1.014-0.3813-2.56-1.859-2.56-1.226 0-2.721 1.132-2.476 1.874 0.4008 1.216 3.579 1.719 4.335 0.6863zm-4.393-25.58c1.192-0.7942 2.176-2.378 2.627-4.229 0.2291-0.9411 0.1921-0.9701-1.236-0.9701-2.441 0-4.225-1.373-4.241-3.263-8e-3 -0.9389-0.0698-0.9701-1.934-0.9701-1.537 0-2.08 0.1604-2.687 0.7938-1.795 1.873-2.243 4.897-1.022 6.9 1.462 2.398 6.084 3.344 8.494 1.739zm1.022-11.53c0-0.1847-0.7151-0.8278-1.589-1.429-1.335-0.9183-2.111-1.15-4.851-1.448-1.794-0.195-5.313-0.821-7.82-1.391-2.507-0.5701-4.613-0.9819-4.68-0.9152-0.0667 0.0667 1.112 0.4744 2.618 0.906 8.479 2.429 10.15 3.037 10.5 3.826 0.3171 0.7167 0.593 0.7871 3.087 0.7871 1.506 0 2.739-0.1511 2.739-0.3358zm33.44-8.925c-0.1474-3.895-0.3112-4.769-1.659-8.851-1.829-5.54-4.88-11.73-7.852-15.92-4.645-6.556-13.19-14.42-20.82-19.17-11.07-6.883-25.02-12.09-39.11-14.6-6.014-1.072-18.78-1.156-24.15-0.1585-3.438 0.6386-5.112 1.284-3.334 1.285 1.423 0.0011 12.63 1.987 15.86 2.81 4.464 1.139 13.82 4.346 18.76 6.429 5.817 2.454 21.19 10.11 27.1 13.5 8.962 5.133 13.58 8.431 18.02 12.87 3.43 3.427 4.319 4.55 5.529 6.981 2.172 4.364 2.698 7.268 2.456 13.56l-0.2001 5.206 2.178 0.1245c1.198 0.0685 3.348 0.1551 4.778 0.1925l2.6 0.068z" stroke-width=".3528"/></g></g></svg>
