<?xml version="1.0" encoding="UTF-8" standalone="no"?>
<!-- Created with Inkscape (http://www.inkscape.org/) -->

<svg
   xmlns:dc="http://purl.org/dc/elements/1.1/"
   xmlns:cc="http://creativecommons.org/ns#"
   xmlns:rdf="http://www.w3.org/1999/02/22-rdf-syntax-ns#"
   xmlns:svg="http://www.w3.org/2000/svg"
   xmlns="http://www.w3.org/2000/svg"
   xmlns:xlink="http://www.w3.org/1999/xlink"
   xmlns:sodipodi="http://sodipodi.sourceforge.net/DTD/sodipodi-0.dtd"
   xmlns:inkscape="http://www.inkscape.org/namespaces/inkscape"
   width="165.79805mm"
   height="108.97442mm"
   viewBox="0 0 587.4734 386.12983"
   id="svg2"
   version="1.1"
   inkscape:version="0.92.3 (2405546, 2018-03-11)"
   sodipodi:docname="shrimp_original_simp_plain1.svg">
  <defs
     id="defs4">
    <linearGradient
       inkscape:collect="always"
       id="linearGradient4391">
      <stop
         style="stop-color:#fe008a;stop-opacity:1"
         offset="0"
         id="stop4393" />
      <stop
         id="stop4405"
         offset="0.16536663"
         style="stop-color:#09bfff;stop-opacity:0.83137256" />
      <stop
         id="stop4399"
         offset="0.35257417"
         style="stop-color:#410be2;stop-opacity:1" />
      <stop
         style="stop-color:#fcff05;stop-opacity:1"
         offset="0.56318265"
         id="stop4401" />
      <stop
         id="stop4403"
         offset="0.81747288"
         style="stop-color:#00fe00;stop-opacity:0.94238681" />
      <stop
         style="stop-color:#fea300;stop-opacity:1"
         offset="1"
         id="stop4395" />
    </linearGradient>
    <linearGradient
       inkscape:collect="always"
       xlink:href="#linearGradient4391"
       id="linearGradient4397"
       x1="-196.97974"
       y1="323.53711"
       x2="450.52789"
       y2="323.53711"
       gradientUnits="userSpaceOnUse"
       gradientTransform="matrix(0.92199686,0,0,1.0045351,21.000456,-4.4977483)" />
  </defs>
  <sodipodi:namedview
     id="base"
     pagecolor="#ffffff"
     bordercolor="#666666"
     borderopacity="1.0"
     inkscape:pageopacity="0.0"
     inkscape:pageshadow="2"
     inkscape:zoom="1.4"
     inkscape:cx="263.77156"
     inkscape:cy="184.53339"
     inkscape:document-units="px"
     inkscape:current-layer="layer9"
     showgrid="false"
     showborder="false"
     inkscape:window-width="1920"
     inkscape:window-height="1009"
     inkscape:window-x="0"
     inkscape:window-y="0"
     inkscape:window-maximized="1"
     fit-margin-top="0"
     fit-margin-left="0"
     fit-margin-right="0"
     fit-margin-bottom="0" />
  <metadata
     id="metadata7">
    <rdf:RDF>
      <cc:Work
         rdf:about="">
        <dc:format>image/svg+xml</dc:format>
        <dc:type
           rdf:resource="http://purl.org/dc/dcmitype/StillImage" />
        <dc:title />
      </cc:Work>
    </rdf:RDF>
  </metadata>
  <g
     inkscape:groupmode="layer"
     id="layer15"
     inkscape:label="bg"
     transform="translate(575.70332,-111.113)" />
  <g
     inkscape:groupmode="layer"
     id="layer16"
     inkscape:label="couleur pattes"
     transform="translate(575.70332,-111.113)" />
  <g
     inkscape:groupmode="layer"
     id="layer8"
     inkscape:label="colors"
     style="display:none;opacity:1"
     transform="translate(575.70332,-111.113)">
    <path
       style="opacity:1;fill:url(#linearGradient4397);fill-opacity:1;stroke:none;stroke-width:3;stroke-linecap:round;stroke-linejoin:round;stroke-miterlimit:4;stroke-dasharray:none;stroke-dashoffset:0;stroke-opacity:0.94117647"
       d="m -160.61424,96.757912 h 597 V 544.25544 h -597 z"
       id="rect4381"
       inkscape:connector-curvature="0" />
  </g>
  <g
     inkscape:label="Outline"
     inkscape:groupmode="layer"
     id="layer1"
     style="display:inline"
     transform="translate(575.70332,-111.113)" />
  <g
     inkscape:groupmode="layer"
     id="layer2"
     inkscape:label="more lines"
     style="display:inline"
     transform="translate(575.70332,-111.113)" />
  <g
     inkscape:groupmode="layer"
     id="layer13"
     inkscape:label="BGoutline"
     style="display:none"
     transform="translate(575.70332,-111.113)">
    <path
       style="display:inline;fill:none;fill-rule:evenodd;stroke:#000000;stroke-width:3;stroke-linecap:round;stroke-linejoin:miter;stroke-miterlimit:4;stroke-dasharray:none;stroke-opacity:1"
       d="M 232.14286,461.64792 174.28571,438.79078 82.85714,419.14792 h -25 l 5,8.57143 -5,3.92857 5.35714,13.21428 15.35715,9.28572 3.92857,17.14286 19.28571,13.21428 37.14286,8.21429 72.5,13.92857 42.14286,-1.42857 m -22.5,-43.21429 10.71428,-15.71428 35.71429,-24.64286 8.92857,-8.21429 8.21429,-16.78571"
       id="path4203-5"
       inkscape:connector-curvature="0"
       sodipodi:nodetypes="cccccccccccccccccc" />
    <path
       style="display:inline;fill:none;fill-rule:evenodd;stroke:#000000;stroke-width:3;stroke-linecap:butt;stroke-linejoin:miter;stroke-miterlimit:4;stroke-dasharray:none;stroke-opacity:1"
       d="m 253.57143,504.50506 1.07143,7.14286 17.5,-2.14286 9.64285,-3.57143 17.5,-6.78571 13.21429,-4.28572 10,-5.71428 18.57143,-13.57143 16.42857,-14.64286 9.64286,-12.5 18.57143,-21.42857 11.07142,-15 11.78572,-18.21428 3.92857,-7.85715 -3.92857,-5.35714 13.57143,0.71429 L 425,367.00506"
       id="path4205-6"
       inkscape:connector-curvature="0" />
    <path
       style="display:inline;fill:none;fill-rule:evenodd;stroke:#000000;stroke-width:3;stroke-linecap:round;stroke-linejoin:miter;stroke-miterlimit:4;stroke-dasharray:none;stroke-opacity:1"
       d="m 285.35714,380.21935 5,5 3.92857,11.42857"
       id="path4207-2"
       inkscape:connector-curvature="0"
       sodipodi:nodetypes="ccc" />
    <path
       style="display:inline;fill:none;fill-rule:evenodd;stroke:#000000;stroke-width:3;stroke-linecap:butt;stroke-linejoin:miter;stroke-miterlimit:4;stroke-dasharray:none;stroke-opacity:1"
       d="m 294.10714,397.45149 0.0893,-1.25"
       id="path4209-9"
       inkscape:connector-curvature="0" />
    <path
       style="display:inline;fill:none;fill-rule:evenodd;stroke:#000000;stroke-width:3;stroke-linecap:round;stroke-linejoin:round;stroke-miterlimit:4;stroke-dasharray:none;stroke-opacity:1"
       d="m 424.94772,367.15227 4.04061,-29.7995 3.15672,-18.56155 -2.39911,-24.36993 -3.03046,-14.64721 L 415.35714,263.43363 392.5,233.79077 378.57143,219.14792 342.5,202.00506 l -34.28571,-8.57143 -13.92858,-3.21428 -42.85714,-1.07143 -22.14286,-0.71429 -20.71428,1.42857 -11.42857,6.07143 h -28.21429 l -51.78571,-0.71428 -37.50001,-3.21429 -3.21428,3.21429 -32.14286,-4.64286 -3.57143,5.71428 H 22.14285 c 0,0 -22.21002998,-0.19767 -33.21428,1.07144 -9.64847,1.11274 -28.57143,5.71428 -28.57143,5.71428 l -15.000001,4.28572 -24.642861,0.53571 -29.821428,-1.78571 8.14405,3.78589 14.891668,7.10696 7.5,6.07143 -2.142857,4.64286 -21.367291,5.38252 c -4.36212,4.80336 -34.09691,8.3483 -39.46338,11.92314 l -3.92857,8.54913 c 2.84383,33.84004 25.04803,28.85527 44.43492,24.31544 l 50.324321,3.75834 29.285719,9.64285 15.71428,4.28572 H 5.35714 l 20.19434,5.55149 24.98949,7.29078 c 19.72738,3.68312 27.21307,3.47519 45.69941,5.26306 25.97499,2.02394 49.91032,5.85236 85.33454,7.83502 l 35.60788,-1.01015 14.64721,-4.54569 9.09137,2.0203 19.69798,9.09138 15.15229,12.6269 10.6066,9.59645 10.10152,15.65737 -10.10152,15.65736"
       id="path4211-1"
       inkscape:connector-curvature="0"
       sodipodi:nodetypes="ccccccccccccccccccccccscccccccccccccccccccccccccccc" />
  </g>
  <g
     inkscape:groupmode="layer"
     id="layer7"
     inkscape:label="Antenna"
     style="display:inline"
     transform="translate(575.70332,-111.113)" />
  <g
     inkscape:groupmode="layer"
     id="layer3"
     inkscape:label="Pattes"
     style="display:inline"
     transform="translate(575.70332,-111.113)" />
  <g
     inkscape:groupmode="layer"
     id="layer4"
     inkscape:label="Details"
     style="display:inline"
     transform="translate(575.70332,-111.113)" />
  <g
     inkscape:groupmode="layer"
     id="layer5"
     inkscape:label="Oil"
     style="display:inline"
     transform="translate(575.70332,-111.113)" />
  <g
     inkscape:groupmode="layer"
     id="layer6"
     inkscape:label="Smile"
     style="display:none;opacity:0.16700003"
     transform="translate(575.70332,-111.113)">
    <g
       id="g923">
      <path
         inkscape:connector-curvature="0"
         id="path8932"
         d="m -191.79432,172.33233 c -30.78393,5.08383 -60.89634,10.17515 -93.13589,6.81908 -25.04277,-1.34028 -49.67732,-2.16583 -73.44926,-2.11997 -19.2738,-4.2108 -35.23997,6.63979 -55.98659,3.10588 -30.55344,-1.25648 -58.70576,14.85391 -89.31367,10.8946 -14.70822,-3.91038 -25.62096,3.75922 -5.86332,9.65063 22.052,16.30117 -28.34284,17.32046 -39.69071,23.84952 -31.13677,-0.44583 -16.12556,48.44002 9.76044,40.5056 29.13817,-4.69536 60.31521,-1.85581 88.27863,7.72786 25.01814,7.90346 51.32833,9.3603 76.15212,18.59411 38.95021,7.71693 78.99709,8.40946 118.38686,13.25075 22.77283,1.03099 46.15971,2.58561 68.13981,-4.12451 26.38856,6.30267 49.43841,24.83616 62.56005,48.42683 -17.6212,16.87745 9.34491,42.97305 -19.14332,56.50313 -15.52015,13.02977 -36.55349,20.48562 -45.33184,40.05522 -30.35765,-12.62831 -60.61674,-26.1389 -93.44526,-30.78529 -24.92844,-2.91044 -57.43457,-18.9409 -78.22991,-7.91796 -1.56163,11.45947 2.29239,26.54118 18.64693,31.39938 0.43094,24.66789 27.57229,33.15076 47.93539,35.86522 30.21068,5.65104 60.32098,13.49868 90.80489,16.68553 29.04505,-5.59463 48.56297,12.43691 76.19857,-5.12827 43.096874,-11.66189 71.56303,-48.50568 97.910659,-81.96164 9.457001,-10.59033 20.6100292,-32.01251 20.9717154,-38.8118 C 11.530233,365.61116 1.75207,329.87686 8.4898483,314.54898 11.886501,291.48162 9.7468553,264.90581 -6.7894932,246.97781 -23.090706,226.87792 -36.700514,201.6565 -62.917514,193.46917 c -21.833364,-11.02641 -46.385306,-15.79234 -70.356136,-19.69849 -19.50021,-0.57665 -39.01219,-1.1269 -58.52067,-1.43835 z"
         style="display:inline;opacity:1;fill:none;fill-opacity:1;stroke:none;stroke-width:2;stroke-linecap:round;stroke-linejoin:round;stroke-miterlimit:4;stroke-dasharray:none;stroke-dashoffset:0;stroke-opacity:0.94117647"
         transform="translate(-2.7845148e-6,-4.1444207e-6)" />
      <path
         inkscape:connector-curvature="0"
         id="path9003"
         d="m -556.75937,112.57957 c -16.53184,-4.48689 -22.98628,14.47439 -2.94525,11.92302 25.95295,2.41668 56.82769,5.23825 71.68372,30.00258 9.76034,7.77827 18.20532,43.87235 29.76467,28.17614 -16.9069,-22.69069 -27.18741,-55.22203 -56.57742,-64.50253 -13.57588,-4.0051 -27.7964,-5.63666 -41.92572,-5.59921 z"
         style="opacity:0.44405595;fill:none;fill-opacity:0.375;stroke:none;stroke-width:2;stroke-linecap:round;stroke-linejoin:round;stroke-miterlimit:4;stroke-dasharray:none;stroke-dashoffset:0;stroke-opacity:1"
         transform="translate(-2.7845148e-6,-4.1444207e-6)" />
      <path
         inkscape:connector-curvature="0"
         id="path9005"
         d="m -182.26701,301.52446 c -8.94871,22.40615 -19.30292,47.93754 -45.81329,54.73169 -12.05532,8.05846 -42.45299,-2.71805 -44.00308,8.45119 25.25382,0.40143 56.30741,5.15493 74.80341,-16.04213 9.52744,-9.65685 28.36372,-37.87963 15.01296,-47.14075 z"
         style="opacity:0.44405595;fill:none;fill-opacity:0.375;stroke:none;stroke-width:2;stroke-linecap:round;stroke-linejoin:round;stroke-miterlimit:4;stroke-dasharray:none;stroke-dashoffset:0;stroke-opacity:1"
         transform="translate(-2.7845148e-6,-4.1444207e-6)" />
      <path
         inkscape:connector-curvature="0"
         id="path9007"
         d="m -173.05036,305.77322 c -5.26332,25.68259 -20.63127,46.80406 -44.13795,60.24317 -10.34071,-0.13178 -53.9686,12.75715 -22.77943,12.65427 22.23681,0.47106 42.10884,-12.9579 57.54564,-27.95748 8.50908,-10.00145 22.06429,-36.27663 9.37174,-44.93996 z"
         style="opacity:0.44405595;fill:none;fill-opacity:0.375;stroke:none;stroke-width:2;stroke-linecap:round;stroke-linejoin:round;stroke-miterlimit:4;stroke-dasharray:none;stroke-dashoffset:0;stroke-opacity:1"
         transform="translate(-2.7845148e-6,-4.1444207e-6)" />
      <path
         inkscape:connector-curvature="0"
         id="path9009"
         d="m -163.64332,310.05551 c -6.86025,19.38439 -10.64756,41.90618 -31.9247,52.94723 -8.08021,13.56609 -32.61861,17.61357 -35.6308,27.40526 21.31761,0.58949 40.05308,-16.29113 55.00466,-30.16045 9.83035,-12.13893 21.20154,-36.91559 12.55084,-50.19204 z"
         style="opacity:0.44405595;fill:none;fill-opacity:0.375;stroke:none;stroke-width:2;stroke-linecap:round;stroke-linejoin:round;stroke-miterlimit:4;stroke-dasharray:none;stroke-dashoffset:0;stroke-opacity:1"
         transform="translate(-2.7845148e-6,-4.1444207e-6)" />
      <path
         inkscape:connector-curvature="0"
         id="path9011"
         d="m -156.3493,316.15293 c -2.69552,24.73814 -16.45105,48.14359 -38.96942,61.42567 -12.75657,2.05809 -37.23608,21.71281 -9.9291,14.83548 22.44724,-5.77601 40.30194,-23.0005 48.57402,-44.48622 3.16393,-7.39421 10.85813,-27.98278 0.3245,-31.77493 z"
         style="opacity:0.44405595;fill:none;fill-opacity:0.375;stroke:none;stroke-width:2;stroke-linecap:round;stroke-linejoin:round;stroke-miterlimit:4;stroke-dasharray:none;stroke-dashoffset:0;stroke-opacity:1"
         transform="translate(-2.7845148e-6,-4.1444207e-6)" />
      <path
         inkscape:connector-curvature="0"
         id="path9013"
         d="m -151.51458,320.91663 c -2.74817,24.42143 -14.17451,51.00318 -37.41346,63.10013 -26.36878,15.37294 12.92682,6.29656 21.40783,-2.06138 17.80918,-11.39541 25.32729,-34.71075 23.25998,-55.50709 -0.71003,-2.94424 -4.16799,-5.88933 -7.25435,-5.53166 z"
         style="opacity:0.44405595;fill:none;fill-opacity:0.375;stroke:none;stroke-width:2;stroke-linecap:round;stroke-linejoin:round;stroke-miterlimit:4;stroke-dasharray:none;stroke-dashoffset:0;stroke-opacity:1"
         transform="translate(-2.7845148e-6,-4.1444207e-6)" />
      <path
         inkscape:connector-curvature="0"
         id="path4203"
         d="m -364.01785,415.57649 c 33.44274,2.18178 66.59373,6.6795 99.55606,12.67489 25.08271,6.19659 49.7182,14.31639 74.72966,20.89654 -0.83014,-8.12462 -14.69175,-7.38592 -20.92271,-11.83719 -20.12874,-8.05844 -40.0193,-16.90373 -61.67814,-19.90741 -23.66459,-4.49051 -47.08182,-11.3099 -70.90292,-14.32683 -5.65404,1.8081 -25.32223,-4.43311 -17.94814,4.85795 1.49735,6.33355 -4.89615,12.11884 2.44867,20.67217 6.68323,5.26333 17.90138,7.19368 17.31623,17.69282 -0.40082,11.63145 12.03345,14.5256 19.44219,20.8408 26.45416,8.14864 54.55845,12.10519 81.8343,17.73107 16.77898,3.53016 33.54537,7.22138 50.77438,4.99068 5.53455,-1.88165 26.02716,3.26974 17.62589,-5.1643 -9.26155,-11.43118 -8.12975,-28.53292 -19.06118,-38.76405 5.96615,-10.0043 12.82663,-19.11923 23.44419,-24.49792 14.16583,-10.55369 32.53008,-18.48692 38.09314,-36.70259 0.67804,-1.38554 1.35607,-2.77109 2.0341,-4.15663"
         style="display:inline;fill:none;fill-rule:evenodd;stroke:#000000;stroke-width:3;stroke-linecap:round;stroke-linejoin:miter;stroke-miterlimit:4;stroke-dasharray:none;stroke-opacity:1"
         transform="translate(-2.7845148e-6,-4.1444207e-6)" />
      <path
         inkscape:connector-curvature="0"
         id="path4205"
         d="m -168.30356,488.43363 c -1.86429,12.2615 11.59652,4.36513 18.57143,5 16.6232,-7.24482 34.75015,-11.07618 50.357136,-20.35714 17.837087,-12.29674 34.924156,-26.01067 47.405391,-43.90183 16.309734,-18.10422 31.5484,-37.51301 42.5946092,-59.31246 -11.5093962,-11.6281 13.5205408,1.9463 10.7458293,-10.1577 0.5847236,-2.92363 1.1694471,-5.84725 1.7541707,-8.77087"
         style="display:inline;fill:none;fill-rule:evenodd;stroke:#000000;stroke-width:3;stroke-linecap:butt;stroke-linejoin:miter;stroke-miterlimit:4;stroke-dasharray:none;stroke-opacity:1"
         transform="translate(-2.7845148e-6,-4.1444207e-6)" />
      <path
         inkscape:connector-curvature="0"
         id="path4207"
         d="m -13.303564,363.79077 c -19.659902,-1.29194 -38.378918,6.17954 -57.847598,7.92705 -15.606099,-1.5363 -28.989268,-12.98482 -44.248628,-15.52508 -6.22389,0.76377 -21.53395,4.30969 -19.12965,9.94359 4.73704,3.3257 4.66298,9.56613 6.94016,14.44016"
         style="display:inline;fill:none;fill-rule:evenodd;stroke:#000000;stroke-width:3;stroke-linecap:round;stroke-linejoin:miter;stroke-miterlimit:4;stroke-dasharray:none;stroke-opacity:1"
         transform="translate(-2.7845148e-6,-4.1444207e-6)" />
      <path
         inkscape:connector-curvature="0"
         id="path4209"
         d="m -127.76785,381.38006 0.0893,-1.25"
         style="display:inline;fill:none;fill-rule:evenodd;stroke:#000000;stroke-width:3;stroke-linecap:butt;stroke-linejoin:miter;stroke-miterlimit:4;stroke-dasharray:none;stroke-opacity:1"
         transform="translate(-2.7845148e-6,-4.1444207e-6)" />
      <path
         inkscape:connector-curvature="0"
         id="path4211"
         d="M 3.0727262,351.08084 C 4.8288813,333.97326 8.6014054,316.93877 9.9945556,299.92128 7.9393455,283.48175 9.0781928,264.96426 -3.1845279,252.15762 -16.209278,235.04363 -28.345656,216.6269 -44.573466,202.47297 c -18.397946,-8.6632 -36.262981,-18.8125 -56.626124,-21.99549 -16.39233,-4.93078 -33.13608,-7.66645 -50.28452,-6.92693 -21.35027,0.31799 -43.551,-3.54804 -64.3028,1.5595 -11.15239,8.40517 -25.64618,3.45312 -38.56539,4.73276 -29.35035,-0.15464 -58.68876,-0.54941 -87.87984,-3.90918 -5.78118,6.82827 -16.25453,-0.4565 -24.08791,0.19921 -10.59237,-5.88374 -12.61526,5.41608 -21.87075,4.0865 -29.87468,-1.12241 -59.87648,1.46758 -88.32705,11.07144 -18.18087,0.95476 -36.32726,0.0983 -54.46429,-1.25 10.36977,5.32187 21.98495,8.72859 30.53572,16.96428 -2.88207,8.86864 -15.3081,6.23413 -22.59422,9.79465 -12.71946,10.16967 -38.02275,2.22538 -43.90182,19.81936 -3.77086,26.62878 25.72627,33.74622 45.43097,25.30379 22.18675,2.65955 45.35786,0.36955 66.28352,9.37015 13.03297,4.31361 26.23017,9.17742 40.06584,8.58474 27.36348,7.34598 54.27914,17.27054 83.0654,17.14424 43.19333,3.23058 86.83093,11.87389 130.09021,6.57978 9.88982,-5.25064 20.7111,-3.1479 29.98916,2.43252 14.82212,5.64198 25.97365,17.76134 37.28286,28.37178 3.62989,7.18825 13.82045,14.37649 4.76584,21.56473 -1.84269,2.85618 -3.68539,5.71235 -5.52808,8.56853"
         style="display:inline;fill:none;fill-rule:evenodd;stroke:#000000;stroke-width:3;stroke-linecap:round;stroke-linejoin:round;stroke-miterlimit:4;stroke-dasharray:none;stroke-opacity:1"
         transform="translate(-2.7845148e-6,-4.1444207e-6)" />
      <path
         inkscape:connector-curvature="0"
         id="path4233"
         d="m -192.23213,172.71934 c 4.70454,29.15055 2.8143,58.69572 4.74006,88.07052 -1.69908,14.59384 -8.95622,28.06224 -12.5913,42.31957"
         style="display:inline;fill:none;fill-rule:evenodd;stroke:#000000;stroke-width:1px;stroke-linecap:butt;stroke-linejoin:miter;stroke-opacity:1"
         transform="translate(-2.7845148e-6,-4.1444207e-6)" />
      <path
         inkscape:connector-curvature="0"
         id="path4235"
         d="m -148.83928,320.93363 c 26.98178,-16.35893 56.471495,-29.99838 78.877534,-52.58541 8.765714,-9.6709 15.844683,-20.32531 19.565088,-32.93801 3.97609,-9.76119 7.803739,-19.56804 9.727984,-29.96991"
         style="display:inline;fill:none;fill-rule:evenodd;stroke:#000000;stroke-width:1px;stroke-linecap:butt;stroke-linejoin:miter;stroke-opacity:1"
         transform="translate(-2.7845148e-6,-4.1444207e-6)" />
      <path
         inkscape:connector-curvature="0"
         id="path4237"
         d="m -133.72898,335.74998 c 16.37767,2.34829 33.00609,1.59542 48.984741,-2.40162 16.835609,-7.34042 32.050092,-17.26788 46.100548,-29.05292 12.488483,-9.05148 17.624837,-24.84915 27.032754,-36.78818 3.5486659,-5.15371 7.0126432,-10.0779 8.1916332,-16.35755"
         style="display:inline;fill:none;fill-rule:evenodd;stroke:#000000;stroke-width:1px;stroke-linecap:butt;stroke-linejoin:miter;stroke-opacity:1"
         transform="translate(-2.7845148e-6,-4.1444207e-6)" />
      <path
         inkscape:connector-curvature="0"
         id="path4239"
         d="m -169.08432,307.46571 c 17.72119,-26.53002 37.80298,-51.5345 55.71685,-77.81407 6.21197,-15.59986 16.526575,-30.83518 18.024286,-47.69738"
         style="display:inline;fill:none;fill-rule:evenodd;stroke:#000000;stroke-width:1px;stroke-linecap:butt;stroke-linejoin:miter;stroke-opacity:1"
         transform="translate(-2.7845148e-6,-4.1444207e-6)" />
      <path
         inkscape:connector-curvature="0"
         id="path4354"
         d="m -456.87499,184.14792 c -10.66203,-13.61948 -21.58798,-35.65736 -34.69569,-50.95169 -18.01207,-20.30958 -48.13251,-20.15143 -73.16145,-20.47688 -15.59092,2.34069 -8.71653,12.05617 2.85714,11.42857"
         style="display:inline;fill:none;fill-rule:evenodd;stroke:#000000;stroke-width:3;stroke-linecap:butt;stroke-linejoin:miter;stroke-miterlimit:4;stroke-dasharray:none;stroke-opacity:1"
         transform="translate(-2.7845148e-6,-4.1444207e-6)" />
      <path
         inkscape:connector-curvature="0"
         id="path4356"
         d="m -466.87499,188.43363 c -13.99647,-25.75858 -30.49547,-57.52457 -63.43768,-60.23605 -10.64596,-2.10022 -21.44981,-3.3773 -32.27661,-4.04966"
         style="display:inline;fill:none;fill-rule:evenodd;stroke:#000000;stroke-width:3;stroke-linecap:butt;stroke-linejoin:miter;stroke-miterlimit:4;stroke-dasharray:none;stroke-opacity:1"
         transform="translate(-2.7845148e-6,-4.1444207e-6)" />
      <path
         inkscape:connector-curvature="0"
         id="path4242"
         d="m -176.913,303.67764 c -2.32625,12.67652 -5.40232,25.05863 -13.22965,35.57513 -4.97044,9.56952 -15.63413,14.32284 -23.13584,21.75103 -22.504,2.70398 -46.06312,7.42414 -68.1853,0.50507 14.05428,-3.87002 29.74619,2.37865 43.96884,-2.56728 15.99658,-2.26332 30.49859,-11.1237 40.19818,-23.98004 7.81181,-9.04713 9.43537,-22.55293 14.5754,-33.30421"
         style="display:inline;fill:none;fill-rule:evenodd;stroke:#000000;stroke-width:2;stroke-linecap:butt;stroke-linejoin:miter;stroke-miterlimit:4;stroke-dasharray:none;stroke-opacity:1"
         transform="translate(-2.7845148e-6,-4.1444207e-6)" />
      <path
         inkscape:connector-curvature="0"
         id="path4244"
         d="m -168.30356,307.71934 c -0.30967,12.11892 -2.47334,23.75899 -8.53366,34.39263 -4.25371,8.97628 -13.82871,14.56272 -20.92448,21.26292 -12.34509,5.62681 -23.44565,15.60314 -37.80578,14.1876 -4.5408,0.72256 -25.27272,2.41874 -14.10722,-3.36577 14.1561,-5.83417 31.85157,-3.00778 42.70063,-15.42912 9.12857,-8.58658 22.79991,-13.70471 25.47126,-27.15601 4.36096,-8.44488 5.77232,-17.51043 7.48496,-26.74939"
         style="display:inline;fill:none;fill-rule:evenodd;stroke:#000000;stroke-width:2;stroke-linecap:butt;stroke-linejoin:miter;stroke-miterlimit:4;stroke-dasharray:none;stroke-opacity:1"
         transform="translate(-2.7845148e-6,-4.1444207e-6)" />
      <path
         inkscape:connector-curvature="0"
         id="path4250"
         d="m -160.44642,312.00506 c -1.45214,16.19573 -3.71818,32.88561 -14.39523,45.89871 -12.45432,14.65787 -29.88906,24.85808 -47.36793,31.95843 -12.62717,2.96108 -11.30166,-7.45673 0.47675,-6.19446 10.1509,-3.35558 17.12832,-13.53484 26.01432,-19.61024 8.1757,-7.54047 18.82973,-14.19132 23.77658,-24.07466 2.40326,-10.15926 4.80653,-20.31852 7.2098,-30.47778"
         style="display:inline;fill:none;fill-rule:evenodd;stroke:#000000;stroke-width:2;stroke-linecap:butt;stroke-linejoin:miter;stroke-miterlimit:4;stroke-dasharray:none;stroke-opacity:1"
         transform="translate(-2.7845148e-6,-4.1444207e-6)" />
      <path
         inkscape:connector-curvature="0"
         id="path4252"
         d="m -151.87499,318.07649 c -1.36724,11.59052 0.35171,24.29485 -7.78327,33.7517 -5.43303,12.70384 -13.24085,24.65303 -26.02562,30.88208 -9.37691,6.90892 -21.39016,10.77062 -32.97682,11.0805 -1.6798,-8.62387 12.78747,-8.36452 18.53467,-13.21632 11.6166,-5.57401 20.95481,-15.57772 30.31661,-24.10854 5.61672,-11.01779 12.6437,-21.62375 11.81076,-34.52493 0.25551,-2.59769 0.51102,-5.19537 0.76653,-7.79306"
         style="display:inline;fill:none;fill-rule:evenodd;stroke:#000000;stroke-width:2;stroke-linecap:butt;stroke-linejoin:miter;stroke-miterlimit:4;stroke-dasharray:none;stroke-opacity:1"
         transform="translate(-2.7845148e-6,-4.1444207e-6)" />
      <path
         inkscape:connector-curvature="0"
         id="path4254"
         d="m -145.08928,325.21935 c 0.58156,14.8486 0.3864,30.84027 -10.03637,42.58406 -3.67059,8.72106 -10.68262,13.7034 -19.3877,16.79142 -9.54383,5.37654 -19.44788,9.53473 -30.57593,9.55309 1.42857,-1.42857 2.85715,-2.85715 4.28572,-4.28572"
         style="display:inline;fill:none;fill-rule:evenodd;stroke:#000000;stroke-width:2;stroke-linecap:butt;stroke-linejoin:miter;stroke-miterlimit:4;stroke-dasharray:none;stroke-opacity:1"
         transform="translate(-2.7845148e-6,-4.1444207e-6)" />
      <path
         inkscape:connector-curvature="0"
         id="path4347"
         d="m -368.30356,239.8622 c 40.76337,18.19922 89.19332,20.82223 130.71428,3.57143"
         style="display:inline;fill:none;fill-rule:evenodd;stroke:#000000;stroke-width:1px;stroke-linecap:butt;stroke-linejoin:miter;stroke-opacity:1"
         transform="translate(-2.7845148e-6,-4.1444207e-6)" />
      <path
         inkscape:connector-curvature="0"
         id="path4266"
         d="m -474.15396,202.8662 c -0.16949,12.97483 -23.49022,10.20693 -19.53928,-2.56557 3.23485,-9.19036 19.27254,-7.61362 19.53928,2.56557 z"
         style="display:inline;opacity:1;fill:none;fill-opacity:1;stroke:#000000;stroke-width:1.875;stroke-linecap:round;stroke-linejoin:miter;stroke-miterlimit:4;stroke-dasharray:none;stroke-dashoffset:0;stroke-opacity:1"
         transform="translate(-2.7845148e-6,-4.1444207e-6)" />
      <path
         inkscape:connector-curvature="0"
         id="path4349"
         d="m -472.76785,201.64792 c -3.53894,-9.67653 -11.63635,-19.14518 -22.85714,-18.57143"
         style="display:inline;fill:none;fill-rule:evenodd;stroke:#000000;stroke-width:2;stroke-linecap:round;stroke-linejoin:round;stroke-miterlimit:4;stroke-dasharray:none;stroke-opacity:1"
         transform="translate(-2.7845148e-6,-4.1444207e-6)" />
      <path
         inkscape:connector-curvature="0"
         id="path4297"
         d="m -502.6872,211.62749 c 7.90034,-4.27865 17.74878,3.34447 24.22007,-2.42482 5.81816,-3.17186 5.86757,-13.3631 2.80151,-18.53585"
         style="fill:none;fill-rule:evenodd;stroke:#000000;stroke-width:1px;stroke-linecap:butt;stroke-linejoin:miter;stroke-opacity:1" />
      <path
         inkscape:connector-curvature="0"
         id="path4303"
         d="m -560.44642,257.71934 c 39.39463,-9.54295 79.7077,-22.3929 120.621,-14.0447 4.15303,0.59851 8.29896,1.26104 12.41471,2.08042"
         style="fill:none;fill-rule:evenodd;stroke:#000000;stroke-width:2;stroke-linecap:round;stroke-linejoin:miter;stroke-miterlimit:4;stroke-dasharray:none;stroke-opacity:1" />
      <path
         inkscape:connector-curvature="0"
         id="path4305"
         d="m -467.58928,241.02292 c 2.68288,6.61061 3.65582,24.63615 9.49856,10.15263 1.9231,-2.96755 3.8462,-5.93509 5.7693,-8.90263"
         style="fill:none;fill-rule:evenodd;stroke:#000000;stroke-width:2;stroke-linecap:butt;stroke-linejoin:miter;stroke-miterlimit:4;stroke-dasharray:none;stroke-opacity:1" />
    </g>
  </g>
  <g
     inkscape:groupmode="layer"
     id="layer9"
     inkscape:label="Limited">
    <path
       style="fill:none;stroke:#000000;stroke-width:1.87499996;stroke-linecap:butt;stroke-linejoin:miter;stroke-opacity:1;stroke-miterlimit:4;stroke-dasharray:none"
       d="m 8.7608572,125.50607 c 0,0 39.0179598,-50.209897 131.8641428,-55.447671 92.84618,-5.237774 243.284,-8.839074 243.284,-8.839074 0,0 260.6411,-14.451869 193.16515,187.372175 C 509.5982,450.41554 253.72636,356.02722 253.72636,356.02722 l -42.04089,-51.56373 1.91167,-8.80869 c 0,0 155.83141,13.04756 171.67517,38.70326 15.84375,25.65569 64.47516,-96.55836 64.47516,-96.55836 0,0 -38.0165,-61.14203 -74.12753,-45.80328 -36.11102,15.33876 -339.389943,-38.07176 -339.389943,-38.07176 0,0 -32.7707823,-2.43521 -27.4691398,-28.41859"
       id="path869"
       inkscape:connector-curvature="0" />
    <ellipse
       style="fill:none;fill-opacity:1;stroke:#000000;stroke-width:1.875;stroke-miterlimit:4;stroke-dasharray:none;stroke-opacity:1"
       id="path873"
       cx="84.62989"
       cy="89.004288"
       rx="12.606301"
       ry="9.0853767" />
    <path
       style="fill:none;stroke:#000000;stroke-width:1.87499996;stroke-linecap:butt;stroke-linejoin:miter;stroke-opacity:1;stroke-miterlimit:4;stroke-dasharray:none"
       d="m 15.2569,146.60634 c 0,0 118.67167,-4.89616 125.3681,-33.02116"
       id="path875"
       inkscape:connector-curvature="0" />
  </g>
</svg>
