<?xml version="1.0" encoding="UTF-8" standalone="no"?>
<!-- Created with Inkscape (http://www.inkscape.org/) -->

<svg
   xmlns:dc="http://purl.org/dc/elements/1.1/"
   xmlns:cc="http://creativecommons.org/ns#"
   xmlns:rdf="http://www.w3.org/1999/02/22-rdf-syntax-ns#"
   xmlns:svg="http://www.w3.org/2000/svg"
   xmlns="http://www.w3.org/2000/svg"
   xmlns:sodipodi="http://sodipodi.sourceforge.net/DTD/sodipodi-0.dtd"
   xmlns:inkscape="http://www.inkscape.org/namespaces/inkscape"
   width="818.26996"
   height="445"
   viewBox="0 0 216.50059 117.73959"
   version="1.1"
   id="svg8"
   inkscape:version="0.92.3 (2405546, 2018-03-11)"
   sodipodi:docname="shrimp_original_simp_plain2.svg">
  <defs
     id="defs2" />
  <sodipodi:namedview
     id="base"
     pagecolor="#ffffff"
     bordercolor="#666666"
     borderopacity="1.0"
     inkscape:pageopacity="0.0"
     inkscape:pageshadow="2"
     inkscape:zoom="1.08"
     inkscape:cx="296.13255"
     inkscape:cy="224.0641"
     inkscape:document-units="px"
     inkscape:current-layer="layer2"
     showgrid="false"
     showborder="true"
     fit-margin-top="0"
     fit-margin-left="0"
     fit-margin-right="0"
     fit-margin-bottom="0"
     inkscape:window-width="1920"
     inkscape:window-height="1009"
     inkscape:window-x="0"
     inkscape:window-y="0"
     inkscape:window-maximized="1"
     units="px" />
  <metadata
     id="metadata5">
    <rdf:RDF>
      <cc:Work
         rdf:about="">
        <dc:format>image/svg+xml</dc:format>
        <dc:type
           rdf:resource="http://purl.org/dc/dcmitype/StillImage" />
        <dc:title></dc:title>
      </cc:Work>
    </rdf:RDF>
  </metadata>
  <g
     inkscape:groupmode="layer"
     id="layer2"
     inkscape:label="Layer 2"
     transform="translate(-136.98213,-93.777063)">
    <path
       id="path827"
       style="fill:none;stroke:#000000;stroke-width:0.5291667;stroke-linecap:butt;stroke-linejoin:miter;stroke-miterlimit:4;stroke-dasharray:none;stroke-opacity:1"
       d="m 162.84819,143.0596 c 34.08024,-5.7219 26.65543,-10.78963 26.65543,-10.78963 m -16.40861,-8.32187 a 3.0184412,3.0184412 0 0 1 -3.01844,3.01844 3.0184412,3.0184412 0 0 1 -3.01844,-3.01844 3.0184412,3.0184412 0 0 1 3.01844,-3.01844 3.0184412,3.0184412 0 0 1 3.01844,3.01844 z m 77.22133,77.50223 c 0,0 -13.43537,-23.57082 -0.70713,-22.62798 12.72825,0.94283 45.49169,13.67107 45.49169,13.67107 l 27.98186,-6.43886 c 0,0 -1.30908,-29.01034 -35.15208,-38.51004 -33.84301,-9.4997 -50.5783,1.10717 -50.5783,1.10717 0,0 -19.60457,18.98647 -74.50419,-5.59209 0,0 -29.16823,-2.18926 -25.41649,-10.79112 3.75173,-8.60186 29.16203,-7.13634 29.16203,-7.13634 0,0 -1.65226,-8.13321 20.64641,-7.03859 22.29867,1.09461 106.21923,-8.53521 106.21923,-8.53521 m 27.33373,97.54899 c 0,0 -5.18559,12.72824 -70.47676,-5.657 m 43.14303,-91.89199 c 0,0 61.96539,-3.40674 59.85274,44.47834 -2.11265,47.88507 -32.51901,53.07065 -32.51901,53.07065"
       inkscape:connector-curvature="0" />
  </g>
</svg>
